<?xml version="1.0" encoding="UTF-8"?>
<svg id="Layer_1" data-name="Layer 1" xmlns="http://www.w3.org/2000/svg" xmlns:xlink="http://www.w3.org/1999/xlink" viewBox="0 0 2383.92 1689.36">
  <defs>
    <style>
      .cls-1, .cls-2, .cls-3, .cls-4, .cls-5, .cls-6, .cls-7, .cls-8 {
        fill: none;
      }

      .cls-2, .cls-3, .cls-4 {
        stroke: #000;
      }

      .cls-2, .cls-3, .cls-4, .cls-5, .cls-6, .cls-7, .cls-8 {
        stroke-linecap: round;
        stroke-miterlimit: 10;
      }

      .cls-2, .cls-7 {
        stroke-width: .28px;
      }

      .cls-3 {
        stroke-width: .51px;
      }

      .cls-4 {
        stroke-width: .71px;
      }

      .cls-9 {
        fill: #e0d6d6;
      }

      .cls-10, .cls-11, .cls-12 {
        font-size: 29.15px;
        z-index: 50;
      }

      .cls-10, .cls-13 {
        font-family: SFPro-Regular, 'SF Pro';
        font-variation-settings: 'wdth' 100, 'opsz' 28, 'wght' 400;
      }

      .cls-5 {
        stroke-width: 2.83px;
      }

      .cls-5, .cls-7, .cls-8 {
        stroke: #4c2a26;
      }

      .cls-11 {
        font-family: ArialMT, Arial;
        stroke: black;
      }

      .cls-6 {
        stroke: #9c7278;
        stroke-width: .85px;
      }

      .cls-14 {
        fill: #4c2a26;
      }

      .cls-15 {
        fill: #fff;
      }

      .cls-16 {
        fill: #d7cca8;
      }

      .cls-17 {
        fill: #a6b88f;
      }

      .cls-18 {
        fill: #c2adad;
        z-index: 50;
      }

      .cls-8 {
        stroke-width: 1.42px;
      }

      .cls-19 {
        fill: #9c7278;
      }

      .cls-13 {
        font-size: 40.81px;
      }

      .cls-20 {
        fill: #c8d6db;
      }

      .cls-21 {
        clip-path: url(#clippath);
      }

      .cls-12 {
        font-family: Arial-BoldMT, Arial;
        font-weight: 700;
      }
    </style>
    <clipPath id="clippath">
      <rect class="cls-1" x="-1.57" y="3.76" width="2387.05" height="1685.6"/>
    </clipPath>
  </defs>
  <g class="cls-21">
    <path class="cls-9" d="M1423.43,380.84v-148.75h-82.64v148.75h82.64ZM828.3,380.84v-148.75h-131.52v18.5h-16.53v113.72h16.53v16.53h131.52ZM1605.23,380.84h330.55v-21.49h9.64v-108.76h-9.64v-18.5h-330.55v148.75ZM1605.23,541.98h330.55v-21.49h9.64v-108.76h-9.64v-18.5h-330.55v148.75ZM1423.43,541.98v-148.75h-82.64v148.75h82.64ZM378.63,541.98h449.67v-148.75h-449.67v18.5h-11.57v108.76h11.57v21.49ZM1423.43,703.12v-148.75h-82.64v148.75h82.64ZM1605.23,703.12h330.55v-21.49h9.64v-108.76h-9.64v-18.5h-330.55v148.75ZM828.3,703.12v-148.75h-449.67v18.5h-11.57v108.76h11.57v21.49h449.67ZM1935.78,864.27v-21.49h9.64v-108.76h-9.64v-18.5h-330.55v148.75h330.55ZM1340.79,864.27h82.64v-148.75h-82.64v148.75ZM828.3,864.27v-148.75h-449.67v18.5h-11.57v108.76h11.57v21.49h449.67ZM1605.23,1025.41h330.55v-21.49h9.64v-108.76h-9.64v-18.5h-330.55v148.75ZM1387.66,1025.41h35.76v-148.75h-82.64v148.75h46.87ZM680.26,1025.41h148.04v-148.75h-449.67v18.5h-11.57v108.76h11.57v21.49h301.63ZM1945.42,1211.35v-155.04h-9.64v-18.5h-330.55v173.54h340.19ZM680.26,1211.35h148.04v-173.54h-449.67v18.5h-11.57v155.04h313.2ZM1340.79,1211.35h82.64v-173.54h-82.64v173.54ZM1605.23,1397.29h340.19v-173.54h-340.19v173.54ZM404.1,1397.29h424.2v-173.54h-449.67v18.5h-11.57v139.38h11.57v15.66h25.47ZM1423.43,1397.29v-173.54h-82.64v173.54h82.64ZM367.06,1521.24h461.25v-111.56h-461.25v111.56ZM1423.43,1521.24v-111.56h-82.64v111.56h82.64ZM1945.42,1521.24v-111.56h-340.19v111.56h340.19Z"/>
    <polygon class="cls-14" points="2385.49 1686.52 2385.49 1221.18 2300.79 1210.94 2251.1 1211.35 1952.31 1211.35 1952.31 1223.75 1945.42 1223.75 1945.42 1397.29 1952.31 1397.29 1952.31 1409.68 1945.42 1409.68 1945.42 1521.24 1952.31 1521.24 1952.31 1533.64 362.1 1533.64 362.1 1383.28 -1.57 1383.28 -1.57 1686.52 2300.79 1686.52 2385.49 1686.52"/>
    <polygon class="cls-14" points="680.26 393.23 1952.31 393.23 1952.31 380.84 362.1 380.84 362.1 393.23 676.89 393.23 680.26 393.23"/>
    <polygon class="cls-14" points="1191.96 554.38 1952.31 554.38 1952.31 541.98 362.1 541.98 362.1 554.38 870.71 554.38 1191.96 554.38"/>
    <polygon class="cls-14" points="1191.96 715.52 1952.31 715.52 1952.31 703.12 362.1 703.12 362.1 715.52 1148.61 715.52 1191.96 715.52"/>
    <polygon class="cls-14" points="1084.55 876.66 1952.31 876.66 1952.31 864.27 362.1 864.27 362.1 876.66 828.3 876.66 1084.55 876.66"/>
    <polygon class="cls-14" points="1020.49 1037.81 1952.31 1037.81 1952.31 1025.41 362.1 1025.41 362.1 1037.81 828.3 1037.81 1020.49 1037.81"/>
    <polygon class="cls-14" points="1563.27 1223.75 1935.78 1223.75 1935.78 1211.35 378.63 1211.35 378.63 1223.75 1423.43 1223.75 1563.27 1223.75"/>
    <polygon class="cls-14" points="1945.42 1409.68 1952.31 1409.68 1952.31 1397.29 362.1 1397.29 362.1 1409.68 1809.38 1409.68 1945.42 1409.68"/>
    <polygon class="cls-14" points="1945.42 1533.64 1952.31 1533.64 1952.31 1521.24 362.1 1521.24 362.1 1533.64 1605.23 1533.64 1945.42 1533.64"/>
    <polygon class="cls-14" points="1848.1 232.09 1952.31 232.09 1952.31 178.37 680.26 178.37 680.26 232.09 1605.23 232.09 1848.1 232.09"/>
    <rect class="cls-14" x="362.1" y="364.31" width="318.16" height="16.53"/>
    <path class="cls-14" d="M362.1,411.73h16.53v-18.5h-16.53v18.5ZM378.63,541.98v-21.49h-16.53v21.49h16.53Z"/>
    <path class="cls-14" d="M367.06,572.88h11.57v-18.5h-16.53v18.5h4.96ZM362.1,703.12h16.53v-21.49h-16.53v21.49Z"/>
    <path class="cls-14" d="M362.1,734.02h16.53v-18.5h-16.53v18.5ZM378.63,864.27v-21.49h-16.53v21.49h16.53Z"/>
    <path class="cls-14" d="M362.1,895.16h16.53v-18.5h-16.53v18.5ZM378.63,1025.41v-21.49h-16.53v21.49h16.53Z"/>
    <path class="cls-14" d="M367.06,1056.31h11.57v-18.5h-16.53v18.5h4.96ZM362.1,1223.75h16.53v-12.4h-16.53v12.4Z"/>
    <path class="cls-14" d="M362.1,1242.25h16.53v-18.5h-16.53v18.5ZM378.63,1397.29v-15.66h-16.53v15.66h16.53Z"/>
    <path class="cls-14" d="M1945.42,411.73h6.89v-18.5h-16.53v18.5h9.64ZM1952.31,541.98v-21.49h-16.53v21.49h16.53Z"/>
    <path class="cls-14" d="M1952.31,572.88v-18.5h-16.53v18.5h16.53ZM1935.78,703.12h16.53v-21.49h-16.53v21.49Z"/>
    <path class="cls-14" d="M1952.31,734.02v-18.5h-16.53v18.5h16.53ZM1935.78,864.27h16.53v-21.49h-16.53v21.49Z"/>
    <path class="cls-14" d="M1945.42,895.16h6.89v-18.5h-16.53v18.5h9.64ZM1952.31,1025.41v-21.49h-16.53v21.49h16.53Z"/>
    <path class="cls-14" d="M1945.42,1056.31h6.89v-18.5h-16.53v18.5h9.64ZM1952.31,1223.75v-12.4h-16.53v12.4h16.53Z"/>
    <path class="cls-14" d="M1952.31,250.59v-18.5h-16.53v18.5h16.53ZM1935.78,380.84h16.53v-21.49h-16.53v21.49Z"/>
    <path class="cls-14" d="M696.79,250.59v-18.5h-16.53v18.5h16.53ZM680.26,380.84h16.53v-16.53h-16.53v16.53Z"/>
    <path class="cls-18" d="M1340.79,380.84v-148.75h-512.48v148.75h512.48ZM1423.43,380.84h181.8v-148.75h-181.8v148.75ZM1217.59,541.98h123.19v-148.75h-512.48v148.75h389.29ZM1467.13,541.98h138.1v-148.75h-181.8v148.75h43.7ZM1605.23,703.12v-148.75h-181.8v148.75h181.8ZM828.3,703.12h512.48v-148.75h-512.48v148.75ZM1423.43,864.27h181.8v-148.75h-181.8v148.75ZM1340.79,864.27v-148.75h-512.48v148.75h512.48ZM1605.23,1025.41v-148.75h-181.8v148.75h181.8ZM1191.96,1025.41h148.83v-148.75h-512.48v148.75h363.66ZM1561.53,1211.35h43.7v-173.54h-181.8v173.54h138.1ZM951.5,1211.35h389.29v-173.54h-512.48v173.54h123.19ZM1423.43,1397.29h181.8v-173.54h-181.8v173.54ZM877.58,1397.29h463.21v-173.54h-512.48v173.54h49.28ZM1340.79,1521.24v-111.56h-512.48v111.56h512.48ZM1423.43,1521.24h181.8v-111.56h-181.8v111.56Z"/>
    <line class="cls-8" x1="367.06" y1="380.84" x2="367.06" y2="1533.64"/>
    <line class="cls-7" x1="367.06" y1="1533.64" x2="1945.42" y2="1533.64"/>
    <line class="cls-8" x1="1945.42" y1="1533.64" x2="1945.42" y2="219.69"/>
    <line class="cls-7" x1="1945.42" y1="219.69" x2="680.26" y2="219.69"/>
    <line class="cls-7" x1="680.26" y1="219.69" x2="680.26" y2="380.84"/>
    <line class="cls-7" x1="680.26" y1="380.84" x2="367.06" y2="380.84"/>
    <line class="cls-7" x1="1340.79" y1="1521.24" x2="1340.79" y2="1512.98"/>
    <line class="cls-7" x1="1340.79" y1="1496.45" x2="1340.79" y2="1479.92"/>
    <line class="cls-7" x1="1340.79" y1="1463.4" x2="1340.79" y2="1446.87"/>
    <line class="cls-7" x1="1340.79" y1="1430.34" x2="1340.79" y2="1413.81"/>
    <line class="cls-7" x1="1340.79" y1="1397.29" x2="1340.79" y2="1380.76"/>
    <line class="cls-7" x1="1340.79" y1="1364.23" x2="1340.79" y2="1347.7"/>
    <line class="cls-7" x1="1340.79" y1="1331.18" x2="1340.79" y2="1314.65"/>
    <line class="cls-7" x1="1340.79" y1="1298.12" x2="1340.79" y2="1281.59"/>
    <line class="cls-7" x1="1340.79" y1="1265.06" x2="1340.79" y2="1248.54"/>
    <line class="cls-7" x1="1340.79" y1="1232.01" x2="1340.79" y2="1215.48"/>
    <line class="cls-7" x1="1340.79" y1="1198.95" x2="1340.79" y2="1182.43"/>
    <line class="cls-7" x1="1340.79" y1="1165.9" x2="1340.79" y2="1149.37"/>
    <line class="cls-7" x1="1340.79" y1="1132.84" x2="1340.79" y2="1116.32"/>
    <line class="cls-7" x1="1340.79" y1="1099.79" x2="1340.79" y2="1083.26"/>
    <line class="cls-7" x1="1340.79" y1="1066.73" x2="1340.79" y2="1050.21"/>
    <line class="cls-7" x1="1340.79" y1="1033.68" x2="1340.79" y2="1017.15"/>
    <line class="cls-7" x1="1340.79" y1="1000.62" x2="1340.79" y2="984.09"/>
    <line class="cls-7" x1="1340.79" y1="967.57" x2="1340.79" y2="951.04"/>
    <line class="cls-7" x1="1340.79" y1="934.51" x2="1340.79" y2="917.98"/>
    <line class="cls-7" x1="1340.79" y1="901.46" x2="1340.79" y2="884.93"/>
    <line class="cls-7" x1="1340.79" y1="868.4" x2="1340.79" y2="851.87"/>
    <line class="cls-7" x1="1340.79" y1="835.35" x2="1340.79" y2="818.82"/>
    <line class="cls-7" x1="1340.79" y1="802.29" x2="1340.79" y2="785.76"/>
    <line class="cls-7" x1="1340.79" y1="769.24" x2="1340.79" y2="752.71"/>
    <line class="cls-7" x1="1340.79" y1="736.18" x2="1340.79" y2="719.65"/>
    <line class="cls-7" x1="1340.79" y1="703.12" x2="1340.79" y2="686.6"/>
    <line class="cls-7" x1="1340.79" y1="670.07" x2="1340.79" y2="653.54"/>
    <line class="cls-7" x1="1340.79" y1="637.01" x2="1340.79" y2="620.49"/>
    <line class="cls-7" x1="1340.79" y1="603.96" x2="1340.79" y2="587.43"/>
    <line class="cls-7" x1="1340.79" y1="570.9" x2="1340.79" y2="554.38"/>
    <line class="cls-7" x1="1340.79" y1="537.85" x2="1340.79" y2="521.32"/>
    <line class="cls-7" x1="1340.79" y1="504.79" x2="1340.79" y2="488.26"/>
    <line class="cls-7" x1="1340.79" y1="471.74" x2="1340.79" y2="455.21"/>
    <line class="cls-7" x1="1340.79" y1="438.68" x2="1340.79" y2="422.15"/>
    <line class="cls-7" x1="1340.79" y1="405.63" x2="1340.79" y2="389.1"/>
    <line class="cls-7" x1="1340.79" y1="372.57" x2="1340.79" y2="356.04"/>
    <line class="cls-7" x1="1340.79" y1="339.52" x2="1340.79" y2="322.99"/>
    <line class="cls-7" x1="1340.79" y1="306.46" x2="1340.79" y2="289.93"/>
    <line class="cls-7" x1="1340.79" y1="273.41" x2="1340.79" y2="256.88"/>
    <line class="cls-7" x1="1340.79" y1="240.35" x2="1340.79" y2="232.09"/>
    <line class="cls-7" x1="1340.79" y1="232.09" x2="1324.2" y2="232.09"/>
    <line class="cls-7" x1="1307.67" y1="232.09" x2="1291.14" y2="232.09"/>
    <line class="cls-7" x1="1274.61" y1="232.09" x2="1258.09" y2="232.09"/>
    <line class="cls-7" x1="1241.56" y1="232.09" x2="1225.03" y2="232.09"/>
    <line class="cls-7" x1="1208.5" y1="232.09" x2="1191.98" y2="232.09"/>
    <line class="cls-7" x1="1175.45" y1="232.09" x2="1158.92" y2="232.09"/>
    <line class="cls-7" x1="1142.39" y1="232.09" x2="1125.86" y2="232.09"/>
    <line class="cls-7" x1="1109.34" y1="232.09" x2="1092.81" y2="232.09"/>
    <line class="cls-7" x1="1076.28" y1="232.09" x2="1059.75" y2="232.09"/>
    <line class="cls-7" x1="1043.23" y1="232.09" x2="1026.7" y2="232.09"/>
    <line class="cls-7" x1="1010.17" y1="232.09" x2="993.64" y2="232.09"/>
    <line class="cls-7" x1="977.12" y1="232.09" x2="960.59" y2="232.09"/>
    <line class="cls-7" x1="944.06" y1="232.09" x2="927.53" y2="232.09"/>
    <line class="cls-7" x1="911.01" y1="232.09" x2="894.48" y2="232.09"/>
    <line class="cls-7" x1="877.95" y1="232.09" x2="861.42" y2="232.09"/>
    <line class="cls-7" x1="844.89" y1="232.09" x2="828.3" y2="232.09"/>
    <line class="cls-7" x1="828.3" y1="232.09" x2="828.3" y2="240.35"/>
    <line class="cls-7" x1="828.3" y1="256.88" x2="828.3" y2="273.41"/>
    <line class="cls-7" x1="828.3" y1="289.93" x2="828.3" y2="306.46"/>
    <line class="cls-7" x1="828.3" y1="322.99" x2="828.3" y2="339.52"/>
    <line class="cls-7" x1="828.3" y1="356.04" x2="828.3" y2="372.57"/>
    <line class="cls-7" x1="828.3" y1="389.1" x2="828.3" y2="405.63"/>
    <line class="cls-7" x1="828.3" y1="422.15" x2="828.3" y2="438.68"/>
    <line class="cls-7" x1="828.3" y1="455.21" x2="828.3" y2="471.74"/>
    <line class="cls-7" x1="828.3" y1="488.26" x2="828.3" y2="504.79"/>
    <line class="cls-7" x1="828.3" y1="521.32" x2="828.3" y2="537.85"/>
    <line class="cls-7" x1="828.3" y1="554.38" x2="828.3" y2="570.9"/>
    <line class="cls-7" x1="828.3" y1="587.43" x2="828.3" y2="603.96"/>
    <line class="cls-7" x1="828.3" y1="620.49" x2="828.3" y2="637.01"/>
    <line class="cls-7" x1="828.3" y1="653.54" x2="828.3" y2="670.07"/>
    <line class="cls-7" x1="828.3" y1="686.6" x2="828.3" y2="703.12"/>
    <line class="cls-7" x1="828.3" y1="719.65" x2="828.3" y2="736.18"/>
    <line class="cls-7" x1="828.3" y1="752.71" x2="828.3" y2="769.24"/>
    <line class="cls-7" x1="828.3" y1="785.76" x2="828.3" y2="802.29"/>
    <line class="cls-7" x1="828.3" y1="818.82" x2="828.3" y2="835.35"/>
    <line class="cls-7" x1="828.3" y1="851.87" x2="828.3" y2="868.4"/>
    <line class="cls-7" x1="828.3" y1="884.93" x2="828.3" y2="901.46"/>
    <line class="cls-7" x1="828.3" y1="917.98" x2="828.3" y2="934.51"/>
    <line class="cls-7" x1="828.3" y1="951.04" x2="828.3" y2="967.57"/>
    <line class="cls-7" x1="828.3" y1="984.09" x2="828.3" y2="1000.62"/>
    <line class="cls-7" x1="828.3" y1="1017.15" x2="828.3" y2="1033.68"/>
    <line class="cls-7" x1="828.3" y1="1050.21" x2="828.3" y2="1066.73"/>
    <line class="cls-7" x1="828.3" y1="1083.26" x2="828.3" y2="1099.79"/>
    <line class="cls-7" x1="828.3" y1="1116.32" x2="828.3" y2="1132.84"/>
    <line class="cls-7" x1="828.3" y1="1149.37" x2="828.3" y2="1165.9"/>
    <line class="cls-7" x1="828.3" y1="1182.43" x2="828.3" y2="1198.95"/>
    <line class="cls-7" x1="828.3" y1="1215.48" x2="828.3" y2="1232.01"/>
    <line class="cls-7" x1="828.3" y1="1248.54" x2="828.3" y2="1265.06"/>
    <line class="cls-7" x1="828.3" y1="1281.59" x2="828.3" y2="1298.12"/>
    <line class="cls-7" x1="828.3" y1="1314.65" x2="828.3" y2="1331.18"/>
    <line class="cls-7" x1="828.3" y1="1347.7" x2="828.3" y2="1364.23"/>
    <line class="cls-7" x1="828.3" y1="1380.76" x2="828.3" y2="1397.29"/>
    <line class="cls-7" x1="828.3" y1="1413.81" x2="828.3" y2="1430.34"/>
    <line class="cls-7" x1="828.3" y1="1446.87" x2="828.3" y2="1463.4"/>
    <line class="cls-7" x1="828.3" y1="1479.92" x2="828.3" y2="1496.45"/>
    <line class="cls-7" x1="828.3" y1="1512.98" x2="828.3" y2="1521.24"/>
    <line class="cls-7" x1="828.3" y1="1521.24" x2="844.89" y2="1521.24"/>
    <line class="cls-7" x1="861.42" y1="1521.24" x2="877.95" y2="1521.24"/>
    <line class="cls-7" x1="894.48" y1="1521.24" x2="911.01" y2="1521.24"/>
    <line class="cls-7" x1="927.53" y1="1521.24" x2="944.06" y2="1521.24"/>
    <line class="cls-7" x1="960.59" y1="1521.24" x2="977.12" y2="1521.24"/>
    <line class="cls-7" x1="993.64" y1="1521.24" x2="1010.17" y2="1521.24"/>
    <line class="cls-7" x1="1026.7" y1="1521.24" x2="1043.23" y2="1521.24"/>
    <line class="cls-7" x1="1059.75" y1="1521.24" x2="1076.28" y2="1521.24"/>
    <line class="cls-7" x1="1092.81" y1="1521.24" x2="1109.34" y2="1521.24"/>
    <line class="cls-7" x1="1125.86" y1="1521.24" x2="1142.39" y2="1521.24"/>
    <line class="cls-7" x1="1158.92" y1="1521.24" x2="1175.45" y2="1521.24"/>
    <line class="cls-7" x1="1191.98" y1="1521.24" x2="1208.5" y2="1521.24"/>
    <line class="cls-7" x1="1225.03" y1="1521.24" x2="1241.56" y2="1521.24"/>
    <line class="cls-7" x1="1258.09" y1="1521.24" x2="1274.61" y2="1521.24"/>
    <line class="cls-7" x1="1291.14" y1="1521.24" x2="1307.67" y2="1521.24"/>
    <line class="cls-7" x1="1324.2" y1="1521.24" x2="1340.79" y2="1521.24"/>
    <line class="cls-7" x1="1605.23" y1="232.09" x2="1588.7" y2="232.09"/>
    <line class="cls-7" x1="1572.17" y1="232.09" x2="1555.65" y2="232.09"/>
    <line class="cls-7" x1="1539.12" y1="232.09" x2="1522.59" y2="232.09"/>
    <line class="cls-7" x1="1506.06" y1="232.09" x2="1489.54" y2="232.09"/>
    <line class="cls-7" x1="1473.01" y1="232.09" x2="1456.48" y2="232.09"/>
    <line class="cls-7" x1="1439.95" y1="232.09" x2="1423.43" y2="232.09"/>
    <line class="cls-7" x1="1423.43" y1="232.09" x2="1423.43" y2="240.35"/>
    <line class="cls-7" x1="1423.43" y1="256.88" x2="1423.43" y2="273.41"/>
    <line class="cls-7" x1="1423.43" y1="289.93" x2="1423.43" y2="306.46"/>
    <line class="cls-7" x1="1423.43" y1="322.99" x2="1423.43" y2="339.52"/>
    <line class="cls-7" x1="1423.43" y1="356.04" x2="1423.43" y2="372.57"/>
    <line class="cls-7" x1="1423.43" y1="389.1" x2="1423.43" y2="405.63"/>
    <line class="cls-7" x1="1423.43" y1="422.15" x2="1423.43" y2="438.68"/>
    <line class="cls-7" x1="1423.43" y1="455.21" x2="1423.43" y2="471.74"/>
    <line class="cls-7" x1="1423.43" y1="488.26" x2="1423.43" y2="504.79"/>
    <line class="cls-7" x1="1423.43" y1="521.32" x2="1423.43" y2="537.85"/>
    <line class="cls-7" x1="1423.43" y1="554.38" x2="1423.43" y2="570.9"/>
    <line class="cls-7" x1="1423.43" y1="587.43" x2="1423.43" y2="603.96"/>
    <line class="cls-7" x1="1423.43" y1="620.49" x2="1423.43" y2="637.01"/>
    <line class="cls-7" x1="1423.43" y1="653.54" x2="1423.43" y2="670.07"/>
    <line class="cls-7" x1="1423.43" y1="686.6" x2="1423.43" y2="703.12"/>
    <line class="cls-7" x1="1423.43" y1="719.65" x2="1423.43" y2="736.18"/>
    <line class="cls-7" x1="1423.43" y1="752.71" x2="1423.43" y2="769.24"/>
    <line class="cls-7" x1="1423.43" y1="785.76" x2="1423.43" y2="802.29"/>
    <line class="cls-7" x1="1423.43" y1="818.82" x2="1423.43" y2="835.35"/>
    <line class="cls-7" x1="1423.43" y1="851.87" x2="1423.43" y2="868.4"/>
    <line class="cls-7" x1="1423.43" y1="884.93" x2="1423.43" y2="901.46"/>
    <line class="cls-7" x1="1423.43" y1="917.98" x2="1423.43" y2="934.51"/>
    <line class="cls-7" x1="1423.43" y1="951.04" x2="1423.43" y2="967.57"/>
    <line class="cls-7" x1="1423.43" y1="984.09" x2="1423.43" y2="1000.62"/>
    <line class="cls-7" x1="1423.43" y1="1017.15" x2="1423.43" y2="1033.68"/>
    <line class="cls-7" x1="1423.43" y1="1050.21" x2="1423.43" y2="1066.73"/>
    <line class="cls-7" x1="1423.43" y1="1083.26" x2="1423.43" y2="1099.79"/>
    <line class="cls-7" x1="1423.43" y1="1116.32" x2="1423.43" y2="1132.84"/>
    <line class="cls-7" x1="1423.43" y1="1149.37" x2="1423.43" y2="1165.9"/>
    <line class="cls-7" x1="1423.43" y1="1182.43" x2="1423.43" y2="1198.95"/>
    <line class="cls-7" x1="1423.43" y1="1215.48" x2="1423.43" y2="1232.01"/>
    <line class="cls-7" x1="1423.43" y1="1248.54" x2="1423.43" y2="1265.06"/>
    <line class="cls-7" x1="1423.43" y1="1281.59" x2="1423.43" y2="1298.12"/>
    <line class="cls-7" x1="1423.43" y1="1314.65" x2="1423.43" y2="1331.18"/>
    <line class="cls-7" x1="1423.43" y1="1347.7" x2="1423.43" y2="1364.23"/>
    <line class="cls-7" x1="1423.43" y1="1380.76" x2="1423.43" y2="1397.29"/>
    <line class="cls-7" x1="1423.43" y1="1413.81" x2="1423.43" y2="1430.34"/>
    <line class="cls-7" x1="1423.43" y1="1446.87" x2="1423.43" y2="1463.4"/>
    <line class="cls-7" x1="1423.43" y1="1479.92" x2="1423.43" y2="1496.45"/>
    <line class="cls-7" x1="1423.43" y1="1512.98" x2="1423.43" y2="1521.24"/>
    <line class="cls-7" x1="1423.43" y1="1521.24" x2="1439.95" y2="1521.24"/>
    <line class="cls-7" x1="1456.48" y1="1521.24" x2="1473.01" y2="1521.24"/>
    <line class="cls-7" x1="1489.54" y1="1521.24" x2="1506.06" y2="1521.24"/>
    <line class="cls-7" x1="1522.59" y1="1521.24" x2="1539.12" y2="1521.24"/>
    <line class="cls-7" x1="1555.65" y1="1521.24" x2="1572.17" y2="1521.24"/>
    <line class="cls-7" x1="1588.7" y1="1521.24" x2="1605.23" y2="1521.24"/>
    <line class="cls-7" x1="1605.23" y1="1521.24" x2="1605.23" y2="1512.98"/>
    <line class="cls-7" x1="1605.23" y1="1496.45" x2="1605.23" y2="1479.92"/>
    <line class="cls-7" x1="1605.23" y1="1463.4" x2="1605.23" y2="1446.87"/>
    <line class="cls-7" x1="1605.23" y1="1430.34" x2="1605.23" y2="1413.81"/>
    <line class="cls-7" x1="1605.23" y1="1397.29" x2="1605.23" y2="1380.76"/>
    <line class="cls-7" x1="1605.23" y1="1364.23" x2="1605.23" y2="1347.7"/>
    <line class="cls-7" x1="1605.23" y1="1331.18" x2="1605.23" y2="1314.65"/>
    <line class="cls-7" x1="1605.23" y1="1298.12" x2="1605.23" y2="1281.59"/>
    <line class="cls-7" x1="1605.23" y1="1265.06" x2="1605.23" y2="1248.54"/>
    <line class="cls-7" x1="1605.23" y1="1232.01" x2="1605.23" y2="1215.48"/>
    <line class="cls-7" x1="1605.23" y1="1198.95" x2="1605.23" y2="1182.43"/>
    <line class="cls-7" x1="1605.23" y1="1165.9" x2="1605.23" y2="1149.37"/>
    <line class="cls-7" x1="1605.23" y1="1132.84" x2="1605.23" y2="1116.32"/>
    <line class="cls-7" x1="1605.23" y1="1099.79" x2="1605.23" y2="1083.26"/>
    <line class="cls-7" x1="1605.23" y1="1066.73" x2="1605.23" y2="1050.21"/>
    <line class="cls-7" x1="1605.23" y1="1033.68" x2="1605.23" y2="1017.15"/>
    <line class="cls-7" x1="1605.23" y1="1000.62" x2="1605.23" y2="984.09"/>
    <line class="cls-7" x1="1605.23" y1="967.57" x2="1605.23" y2="951.04"/>
    <line class="cls-7" x1="1605.23" y1="934.51" x2="1605.23" y2="917.98"/>
    <line class="cls-7" x1="1605.23" y1="901.46" x2="1605.23" y2="884.93"/>
    <line class="cls-7" x1="1605.23" y1="868.4" x2="1605.23" y2="851.87"/>
    <line class="cls-7" x1="1605.23" y1="835.35" x2="1605.23" y2="818.82"/>
    <line class="cls-7" x1="1605.23" y1="802.29" x2="1605.23" y2="785.76"/>
    <line class="cls-7" x1="1605.23" y1="769.24" x2="1605.23" y2="752.71"/>
    <line class="cls-7" x1="1605.23" y1="736.18" x2="1605.23" y2="719.65"/>
    <line class="cls-7" x1="1605.23" y1="703.12" x2="1605.23" y2="686.6"/>
    <line class="cls-7" x1="1605.23" y1="670.07" x2="1605.23" y2="653.54"/>
    <line class="cls-7" x1="1605.23" y1="637.01" x2="1605.23" y2="620.49"/>
    <line class="cls-7" x1="1605.23" y1="603.96" x2="1605.23" y2="587.43"/>
    <line class="cls-7" x1="1605.23" y1="570.9" x2="1605.23" y2="554.38"/>
    <line class="cls-7" x1="1605.23" y1="537.85" x2="1605.23" y2="521.32"/>
    <line class="cls-7" x1="1605.23" y1="504.79" x2="1605.23" y2="488.26"/>
    <line class="cls-7" x1="1605.23" y1="471.74" x2="1605.23" y2="455.21"/>
    <line class="cls-7" x1="1605.23" y1="438.68" x2="1605.23" y2="422.15"/>
    <line class="cls-7" x1="1605.23" y1="405.63" x2="1605.23" y2="389.1"/>
    <line class="cls-7" x1="1605.23" y1="372.57" x2="1605.23" y2="356.04"/>
    <line class="cls-7" x1="1605.23" y1="339.52" x2="1605.23" y2="322.99"/>
    <line class="cls-7" x1="1605.23" y1="306.46" x2="1605.23" y2="289.93"/>
    <line class="cls-7" x1="1605.23" y1="273.41" x2="1605.23" y2="256.88"/>
    <line class="cls-7" x1="1605.23" y1="240.35" x2="1605.23" y2="232.09"/>
    <line class="cls-7" x1="370.04" y1="364.31" x2="514.66" y2="364.31"/>
    <line class="cls-5" x1="-1.57" y1="1686.52" x2="2385.49" y2="1686.52"/>
    <line class="cls-5" x1="2385.49" y1="1221.18" x2="2300.79" y2="1210.94"/>
    <line class="cls-5" x1="2300.79" y1="1210.94" x2="2251.1" y2="1211.35"/>
    <line class="cls-5" x1="2251.1" y1="1211.35" x2="1945.42" y2="1211.35"/>
    <line class="cls-5" x1="1945.42" y1="1211.35" x2="1945.42" y2="1228.66"/>
    <line class="cls-5" x1="1945.42" y1="1228.66" x2="1945.42" y2="1533.64"/>
    <line class="cls-5" x1="1945.42" y1="1533.64" x2="362.1" y2="1533.64"/>
    <line class="cls-5" x1="362.1" y1="1533.64" x2="362.1" y2="1383.28"/>
    <line class="cls-5" x1="362.1" y1="1383.28" x2="-1.57" y2="1383.28"/>
    <line class="cls-7" x1="1952.31" y1="380.84" x2="362.1" y2="380.84"/>
    <line class="cls-7" x1="362.1" y1="380.84" x2="362.1" y2="393.23"/>
    <line class="cls-7" x1="362.1" y1="393.23" x2="1952.31" y2="393.23"/>
    <line class="cls-7" x1="1952.31" y1="393.23" x2="1952.31" y2="380.84"/>
    <line class="cls-7" x1="1952.31" y1="541.98" x2="362.1" y2="541.98"/>
    <line class="cls-7" x1="362.1" y1="541.98" x2="362.1" y2="554.38"/>
    <line class="cls-7" x1="362.1" y1="554.38" x2="1952.31" y2="554.38"/>
    <line class="cls-7" x1="1952.31" y1="554.38" x2="1952.31" y2="541.98"/>
    <line class="cls-7" x1="1952.31" y1="703.12" x2="362.1" y2="703.12"/>
    <line class="cls-7" x1="362.1" y1="703.12" x2="362.1" y2="715.52"/>
    <line class="cls-7" x1="362.1" y1="715.52" x2="1952.31" y2="715.52"/>
    <line class="cls-7" x1="1952.31" y1="715.52" x2="1952.31" y2="703.12"/>
    <line class="cls-7" x1="1952.31" y1="864.27" x2="362.1" y2="864.27"/>
    <line class="cls-7" x1="362.1" y1="864.27" x2="362.1" y2="876.66"/>
    <line class="cls-7" x1="362.1" y1="876.66" x2="1952.31" y2="876.66"/>
    <line class="cls-7" x1="1952.31" y1="876.66" x2="1952.31" y2="864.27"/>
    <line class="cls-7" x1="1952.31" y1="1025.41" x2="362.1" y2="1025.41"/>
    <line class="cls-7" x1="362.1" y1="1025.41" x2="362.1" y2="1037.81"/>
    <line class="cls-7" x1="362.1" y1="1037.81" x2="1952.31" y2="1037.81"/>
    <line class="cls-7" x1="1952.31" y1="1037.81" x2="1952.31" y2="1025.41"/>
    <line class="cls-7" x1="1952.31" y1="1211.35" x2="362.1" y2="1211.35"/>
    <line class="cls-7" x1="362.1" y1="1211.35" x2="362.1" y2="1223.75"/>
    <line class="cls-7" x1="362.1" y1="1223.75" x2="1952.31" y2="1223.75"/>
    <line class="cls-7" x1="1952.31" y1="1223.75" x2="1952.31" y2="1211.35"/>
    <line class="cls-7" x1="1952.31" y1="1397.29" x2="362.1" y2="1397.29"/>
    <line class="cls-7" x1="362.1" y1="1397.29" x2="362.1" y2="1409.68"/>
    <line class="cls-7" x1="362.1" y1="1409.68" x2="1952.31" y2="1409.68"/>
    <line class="cls-7" x1="1952.31" y1="1409.68" x2="1952.31" y2="1397.29"/>
    <line class="cls-7" x1="1952.31" y1="1521.24" x2="362.1" y2="1521.24"/>
    <line class="cls-7" x1="362.1" y1="1521.24" x2="362.1" y2="1533.64"/>
    <line class="cls-7" x1="362.1" y1="1533.64" x2="1952.31" y2="1533.64"/>
    <line class="cls-7" x1="1952.31" y1="1533.64" x2="1952.31" y2="1521.24"/>
    <line class="cls-7" x1="1952.31" y1="178.37" x2="680.26" y2="178.37"/>
    <line class="cls-7" x1="680.26" y1="178.37" x2="680.26" y2="232.09"/>
    <line class="cls-7" x1="680.26" y1="232.09" x2="1952.31" y2="232.09"/>
    <line class="cls-7" x1="1952.31" y1="232.09" x2="1952.31" y2="178.37"/>
    <line class="cls-7" x1="680.26" y1="364.31" x2="362.1" y2="364.31"/>
    <line class="cls-7" x1="362.1" y1="364.31" x2="362.1" y2="380.84"/>
    <line class="cls-7" x1="362.1" y1="380.84" x2="680.26" y2="380.84"/>
    <line class="cls-7" x1="680.26" y1="380.84" x2="680.26" y2="364.31"/>
    <line class="cls-7" x1="378.63" y1="393.23" x2="362.1" y2="393.23"/>
    <line class="cls-7" x1="362.1" y1="393.23" x2="362.1" y2="411.73"/>
    <line class="cls-7" x1="362.1" y1="411.73" x2="378.63" y2="411.73"/>
    <line class="cls-7" x1="378.63" y1="411.73" x2="378.63" y2="393.23"/>
    <line class="cls-7" x1="378.63" y1="520.49" x2="362.1" y2="520.49"/>
    <line class="cls-7" x1="362.1" y1="520.49" x2="362.1" y2="541.98"/>
    <line class="cls-7" x1="362.1" y1="541.98" x2="378.63" y2="541.98"/>
    <line class="cls-7" x1="378.63" y1="541.98" x2="378.63" y2="520.49"/>
    <line class="cls-7" x1="378.63" y1="554.38" x2="362.1" y2="554.38"/>
    <line class="cls-7" x1="362.1" y1="554.38" x2="362.1" y2="572.88"/>
    <line class="cls-7" x1="362.1" y1="572.88" x2="378.63" y2="572.88"/>
    <line class="cls-7" x1="378.63" y1="572.88" x2="378.63" y2="554.38"/>
    <line class="cls-7" x1="378.63" y1="681.63" x2="362.1" y2="681.63"/>
    <line class="cls-7" x1="362.1" y1="681.63" x2="362.1" y2="703.12"/>
    <line class="cls-7" x1="362.1" y1="703.12" x2="378.63" y2="703.12"/>
    <line class="cls-7" x1="378.63" y1="703.12" x2="378.63" y2="681.63"/>
    <line class="cls-7" x1="378.63" y1="715.52" x2="362.1" y2="715.52"/>
    <line class="cls-7" x1="362.1" y1="715.52" x2="362.1" y2="734.02"/>
    <line class="cls-7" x1="362.1" y1="734.02" x2="378.63" y2="734.02"/>
    <line class="cls-7" x1="378.63" y1="734.02" x2="378.63" y2="715.52"/>
    <line class="cls-7" x1="378.63" y1="842.78" x2="362.1" y2="842.78"/>
    <line class="cls-7" x1="362.1" y1="842.78" x2="362.1" y2="864.27"/>
    <line class="cls-7" x1="362.1" y1="864.27" x2="378.63" y2="864.27"/>
    <line class="cls-7" x1="378.63" y1="864.27" x2="378.63" y2="842.78"/>
    <line class="cls-7" x1="378.63" y1="876.66" x2="362.1" y2="876.66"/>
    <line class="cls-7" x1="362.1" y1="876.66" x2="362.1" y2="895.16"/>
    <line class="cls-7" x1="362.1" y1="895.16" x2="378.63" y2="895.16"/>
    <line class="cls-7" x1="378.63" y1="895.16" x2="378.63" y2="876.66"/>
    <line class="cls-7" x1="378.63" y1="1003.92" x2="362.1" y2="1003.92"/>
    <line class="cls-7" x1="362.1" y1="1003.92" x2="362.1" y2="1025.41"/>
    <line class="cls-7" x1="362.1" y1="1025.41" x2="378.63" y2="1025.41"/>
    <line class="cls-7" x1="378.63" y1="1025.41" x2="378.63" y2="1003.92"/>
    <line class="cls-7" x1="378.63" y1="1037.81" x2="362.1" y2="1037.81"/>
    <line class="cls-7" x1="362.1" y1="1037.81" x2="362.1" y2="1056.31"/>
    <line class="cls-7" x1="362.1" y1="1056.31" x2="378.63" y2="1056.31"/>
    <line class="cls-7" x1="378.63" y1="1056.31" x2="378.63" y2="1037.81"/>
    <line class="cls-7" x1="378.63" y1="1211.35" x2="362.1" y2="1211.35"/>
    <line class="cls-7" x1="362.1" y1="1211.35" x2="362.1" y2="1223.75"/>
    <line class="cls-7" x1="362.1" y1="1223.75" x2="378.63" y2="1223.75"/>
    <line class="cls-7" x1="378.63" y1="1223.75" x2="378.63" y2="1211.35"/>
    <line class="cls-7" x1="378.63" y1="1223.75" x2="362.1" y2="1223.75"/>
    <line class="cls-7" x1="362.1" y1="1223.75" x2="362.1" y2="1242.25"/>
    <line class="cls-7" x1="362.1" y1="1242.25" x2="378.63" y2="1242.25"/>
    <line class="cls-7" x1="378.63" y1="1242.25" x2="378.63" y2="1223.75"/>
    <line class="cls-7" x1="378.63" y1="1381.63" x2="362.1" y2="1381.63"/>
    <line class="cls-7" x1="362.1" y1="1381.63" x2="362.1" y2="1397.29"/>
    <line class="cls-7" x1="362.1" y1="1397.29" x2="378.63" y2="1397.29"/>
    <line class="cls-7" x1="378.63" y1="1397.29" x2="378.63" y2="1381.63"/>
    <line class="cls-7" x1="1952.31" y1="393.23" x2="1935.78" y2="393.23"/>
    <line class="cls-7" x1="1935.78" y1="393.23" x2="1935.78" y2="411.73"/>
    <line class="cls-7" x1="1935.78" y1="411.73" x2="1952.31" y2="411.73"/>
    <line class="cls-7" x1="1952.31" y1="411.73" x2="1952.31" y2="393.23"/>
    <line class="cls-7" x1="1952.31" y1="520.49" x2="1935.78" y2="520.49"/>
    <line class="cls-7" x1="1935.78" y1="520.49" x2="1935.78" y2="541.98"/>
    <line class="cls-7" x1="1935.78" y1="541.98" x2="1952.31" y2="541.98"/>
    <line class="cls-7" x1="1952.31" y1="541.98" x2="1952.31" y2="520.49"/>
    <line class="cls-7" x1="1952.31" y1="554.38" x2="1935.78" y2="554.38"/>
    <line class="cls-7" x1="1935.78" y1="554.38" x2="1935.78" y2="572.88"/>
    <line class="cls-7" x1="1935.78" y1="572.88" x2="1952.31" y2="572.88"/>
    <line class="cls-7" x1="1952.31" y1="572.88" x2="1952.31" y2="554.38"/>
    <line class="cls-7" x1="1952.31" y1="681.63" x2="1935.78" y2="681.63"/>
    <line class="cls-7" x1="1935.78" y1="681.63" x2="1935.78" y2="703.12"/>
    <line class="cls-7" x1="1935.78" y1="703.12" x2="1952.31" y2="703.12"/>
    <line class="cls-7" x1="1952.31" y1="703.12" x2="1952.31" y2="681.63"/>
    <line class="cls-7" x1="1952.31" y1="715.52" x2="1935.78" y2="715.52"/>
    <line class="cls-7" x1="1935.78" y1="715.52" x2="1935.78" y2="734.02"/>
    <line class="cls-7" x1="1935.78" y1="734.02" x2="1952.31" y2="734.02"/>
    <line class="cls-7" x1="1952.31" y1="734.02" x2="1952.31" y2="715.52"/>
    <line class="cls-7" x1="1952.31" y1="842.78" x2="1935.78" y2="842.78"/>
    <line class="cls-7" x1="1935.78" y1="842.78" x2="1935.78" y2="864.27"/>
    <line class="cls-7" x1="1935.78" y1="864.27" x2="1952.31" y2="864.27"/>
    <line class="cls-7" x1="1952.31" y1="864.27" x2="1952.31" y2="842.78"/>
    <line class="cls-7" x1="1952.31" y1="876.66" x2="1935.78" y2="876.66"/>
    <line class="cls-7" x1="1935.78" y1="876.66" x2="1935.78" y2="895.16"/>
    <line class="cls-7" x1="1935.78" y1="895.16" x2="1952.31" y2="895.16"/>
    <line class="cls-7" x1="1952.31" y1="895.16" x2="1952.31" y2="876.66"/>
    <line class="cls-7" x1="1952.31" y1="1003.92" x2="1935.78" y2="1003.92"/>
    <line class="cls-7" x1="1935.78" y1="1003.92" x2="1935.78" y2="1025.41"/>
    <line class="cls-7" x1="1935.78" y1="1025.41" x2="1952.31" y2="1025.41"/>
    <line class="cls-7" x1="1952.31" y1="1025.41" x2="1952.31" y2="1003.92"/>
    <line class="cls-7" x1="1952.31" y1="1037.81" x2="1935.78" y2="1037.81"/>
    <line class="cls-7" x1="1935.78" y1="1037.81" x2="1935.78" y2="1056.31"/>
    <line class="cls-7" x1="1935.78" y1="1056.31" x2="1952.31" y2="1056.31"/>
    <line class="cls-7" x1="1952.31" y1="1056.31" x2="1952.31" y2="1037.81"/>
    <line class="cls-7" x1="1952.31" y1="1211.35" x2="1935.78" y2="1211.35"/>
    <line class="cls-7" x1="1935.78" y1="1211.35" x2="1935.78" y2="1223.75"/>
    <line class="cls-7" x1="1935.78" y1="1223.75" x2="1952.31" y2="1223.75"/>
    <line class="cls-7" x1="1952.31" y1="1223.75" x2="1952.31" y2="1211.35"/>
    <line class="cls-7" x1="1952.31" y1="232.09" x2="1935.78" y2="232.09"/>
    <line class="cls-7" x1="1935.78" y1="232.09" x2="1935.78" y2="250.59"/>
    <line class="cls-7" x1="1935.78" y1="250.59" x2="1952.31" y2="250.59"/>
    <line class="cls-7" x1="1952.31" y1="250.59" x2="1952.31" y2="232.09"/>
    <line class="cls-7" x1="1952.31" y1="359.34" x2="1935.78" y2="359.34"/>
    <line class="cls-7" x1="1935.78" y1="359.34" x2="1935.78" y2="380.84"/>
    <line class="cls-7" x1="1935.78" y1="380.84" x2="1952.31" y2="380.84"/>
    <line class="cls-7" x1="1952.31" y1="380.84" x2="1952.31" y2="359.34"/>
    <line class="cls-7" x1="696.79" y1="232.09" x2="680.26" y2="232.09"/>
    <line class="cls-7" x1="680.26" y1="232.09" x2="680.26" y2="250.59"/>
    <line class="cls-7" x1="680.26" y1="250.59" x2="696.79" y2="250.59"/>
    <line class="cls-7" x1="696.79" y1="250.59" x2="696.79" y2="232.09"/>
    <line class="cls-7" x1="696.79" y1="364.31" x2="680.26" y2="364.31"/>
    <line class="cls-7" x1="680.26" y1="364.31" x2="680.26" y2="380.84"/>
    <line class="cls-7" x1="680.26" y1="380.84" x2="696.79" y2="380.84"/>
    <line class="cls-7" x1="696.79" y1="380.84" x2="696.79" y2="364.31"/>
    <line class="cls-6" x1="1952.39" y1="178.37" x2="770.66" y2="178.37"/>
    <line class="cls-6" x1="1952.39" y1="116.39" x2="1167.32" y2="116.39"/>
  </g>
  <line class="cls-4" x1="2041.69" y1="1397.29" x2="2041.69" y2="1529.51"/>
  <line class="cls-4" x1="2041.69" y1="1521.24" x2="2035.49" y2="1515.05"/>
  <line class="cls-4" x1="2041.69" y1="1521.24" x2="2047.88" y2="1527.44"/>
  <line class="cls-4" x1="2041.69" y1="1521.24" x2="2049.95" y2="1521.24"/>
  <line class="cls-4" x1="2041.69" y1="1521.24" x2="1960.57" y2="1521.24"/>
  <line class="cls-4" x1="2041.69" y1="1211.35" x2="2041.69" y2="1397.29"/>
  <line class="cls-4" x1="2041.69" y1="1397.29" x2="2035.49" y2="1391.09"/>
  <line class="cls-4" x1="2041.69" y1="1397.29" x2="2047.88" y2="1403.48"/>
  <line class="cls-4" x1="2041.69" y1="1397.29" x2="2049.95" y2="1397.29"/>
  <line class="cls-4" x1="2041.69" y1="1397.29" x2="1960.57" y2="1397.29"/>
  <line class="cls-4" x1="2041.69" y1="1025.41" x2="2041.69" y2="1211.35"/>
  <line class="cls-4" x1="2041.69" y1="1211.35" x2="2035.49" y2="1205.15"/>
  <line class="cls-4" x1="2041.69" y1="1211.35" x2="2047.88" y2="1217.55"/>
  <line class="cls-4" x1="2041.69" y1="1211.35" x2="2049.95" y2="1211.35"/>
  <line class="cls-4" x1="2041.69" y1="1211.35" x2="1960.57" y2="1211.35"/>
  <line class="cls-4" x1="2041.69" y1="864.27" x2="2041.69" y2="1025.41"/>
  <line class="cls-4" x1="2041.69" y1="1025.41" x2="2035.49" y2="1019.22"/>
  <line class="cls-4" x1="2041.69" y1="1025.41" x2="2047.88" y2="1031.61"/>
  <line class="cls-4" x1="2041.69" y1="1025.41" x2="2049.95" y2="1025.41"/>
  <line class="cls-4" x1="2041.69" y1="1025.41" x2="1960.57" y2="1025.41"/>
  <line class="cls-4" x1="2041.69" y1="703.12" x2="2041.69" y2="864.27"/>
  <line class="cls-4" x1="2041.69" y1="864.27" x2="2035.49" y2="858.07"/>
  <line class="cls-4" x1="2041.69" y1="864.27" x2="2047.88" y2="870.47"/>
  <line class="cls-4" x1="2041.69" y1="864.27" x2="2049.95" y2="864.27"/>
  <line class="cls-4" x1="2041.69" y1="864.27" x2="1960.57" y2="864.27"/>
  <line class="cls-4" x1="2041.69" y1="541.98" x2="2041.69" y2="703.12"/>
  <line class="cls-4" x1="2041.69" y1="703.12" x2="2035.49" y2="696.93"/>
  <line class="cls-4" x1="2041.69" y1="703.12" x2="2047.88" y2="709.32"/>
  <line class="cls-4" x1="2041.69" y1="703.12" x2="2049.95" y2="703.12"/>
  <line class="cls-4" x1="2041.69" y1="703.12" x2="1960.57" y2="703.12"/>
  <line class="cls-4" x1="2041.69" y1="380.84" x2="2041.69" y2="541.98"/>
  <line class="cls-4" x1="2041.69" y1="541.98" x2="2035.49" y2="535.78"/>
  <line class="cls-4" x1="2041.69" y1="541.98" x2="2047.88" y2="548.18"/>
  <line class="cls-4" x1="2041.69" y1="541.98" x2="2049.95" y2="541.98"/>
  <line class="cls-4" x1="2041.69" y1="541.98" x2="1960.57" y2="541.98"/>
  <line class="cls-4" x1="2041.69" y1="219.69" x2="2041.69" y2="380.84"/>
  <line class="cls-4" x1="2041.69" y1="380.84" x2="2035.49" y2="374.64"/>
  <line class="cls-4" x1="2041.69" y1="380.84" x2="2047.88" y2="387.03"/>
  <line class="cls-4" x1="2041.69" y1="380.84" x2="2049.95" y2="380.84"/>
  <line class="cls-4" x1="2041.69" y1="380.84" x2="1960.57" y2="380.84"/>
  <line class="cls-4" x1="2041.69" y1="170.11" x2="2041.69" y2="219.69"/>
  <line class="cls-4" x1="2041.69" y1="219.69" x2="2035.49" y2="213.49"/>
  <line class="cls-4" x1="2041.69" y1="219.69" x2="2047.88" y2="225.89"/>
  <line class="cls-4" x1="2041.69" y1="219.69" x2="2049.95" y2="219.69"/>
  <line class="cls-4" x1="2041.69" y1="219.69" x2="1953.68" y2="219.69"/>
  <line class="cls-4" x1="2041.69" y1="178.37" x2="2035.49" y2="172.17"/>
  <line class="cls-4" x1="2041.69" y1="178.37" x2="2047.88" y2="184.57"/>
  <line class="cls-4" x1="2041.69" y1="178.37" x2="2049.95" y2="178.37"/>
  <line class="cls-4" x1="2041.69" y1="178.37" x2="1960.57" y2="178.37"/>
  <rect class="cls-15" x="2008.23" y="167.74" width="33.89" height="63.41"/>
  <text class="cls-12" transform="translate(2035.01 231.15) rotate(-90)"><tspan x="0" y="0">1000</tspan></text>
  <rect class="cls-15" x="2008.23" y="268.97" width="33.89" height="63.41"/>
  <rect class="cls-15" x="2008.23" y="430.12" width="33.89" height="63.41"/>
  <rect class="cls-15" x="2008.23" y="591.26" width="33.89" height="63.41"/>
  <rect class="cls-15" x="2008.23" y="752.41" width="33.89" height="63.41"/>
  <rect class="cls-15" x="2008.23" y="913.55" width="33.89" height="63.41"/>
  <rect class="cls-15" x="2008.23" y="1087.09" width="33.89" height="63.41"/>
  <rect class="cls-15" x="2008.23" y="1273.03" width="33.89" height="63.41"/>
  <rect class="cls-15" x="2008.23" y="1427.98" width="33.89" height="63.41"/>
  <text class="cls-12" transform="translate(2035.01 332.39) rotate(-90)"><tspan x="0" y="0">3900</tspan></text>
  <text class="cls-12" transform="translate(2035.01 493.53) rotate(-90)"><tspan x="0" y="0">3900</tspan></text>
  <text class="cls-12" transform="translate(2035.01 654.67) rotate(-90)"><tspan x="0" y="0">3900</tspan></text>
  <text class="cls-12" transform="translate(2035.01 815.82) rotate(-90)"><tspan x="0" y="0">3900</tspan></text>
  <text class="cls-12" transform="translate(2035.01 976.96) rotate(-90)"><tspan x="0" y="0">3900</tspan></text>
  <text class="cls-12" transform="translate(2035.01 1150.5) rotate(-90)"><tspan x="0" y="0">4500</tspan></text>
  <text class="cls-12" transform="translate(2035.01 1336.44) rotate(-90)"><tspan x="0" y="0">4500</tspan></text>
  <text class="cls-12" transform="translate(2035.01 1491.38) rotate(-90)"><tspan x="0" y="0">3000</tspan></text>
  <polygon className="cls-3" points="584.13 1397.29 588.76 1371.05 579.5 1371.05 584.13 1397.29"/>
  <polygon className="cls-3" points="583.95 1211.35 588.58 1185.11 579.32 1185.11 583.95 1211.35"/>
  <polygon className="cls-3" points="586.06 1025.41 590.69 999.18 581.44 999.18 586.06 1025.41"/>
  <polygon className="cls-3" points="590.29 864.27 594.91 838.03 585.66 838.03 590.29 864.27"/>
  <polygon className="cls-3" points="591.34 703.12 595.97 676.89 586.72 676.89 591.34 703.12"/>
  <polygon className="cls-3" points="590.29 541.98 594.91 515.74 585.66 515.74 590.29 541.98"/>
  <polygon className="cls-3" points="764.71 380.84 769.34 354.6 760.08 354.6 764.71 380.84"/>
  <polygon className="cls-3" points="1159.6 178.37 1164.23 152.13 1154.97 152.13 1159.6 178.37"/>
  <text class="cls-13" transform="translate(63.42 1296.42)"><tspan x="0" y="0">Oluf Onsuns</tspan></text>
  <text class="cls-13" transform="translate(63.42 1352.72)"><tspan x="0" y="0">Vei</tspan></text>
  <text class="cls-13" transform="translate(2077.08 1182.87)"><tspan x="0" y="0">Enebakkveien</tspan></text>
  <polygon points="579.64 1521.24 584.27 1495.01 575.01 1495.01 579.64 1521.24"/>
  <g>
  </g>
  <rect class="cls-17" x="367.06" y="1224.46" width="1578.36" height="172.83"/>
  <rect class="cls-16" x="367.06" y="1038.52" width="1578.36" height="172.83"/>
  <rect class="cls-20" x="367.06" y="873.77" width="1578.36" height="151.64"/>
  <rect class="cls-19" x="367.06" y="716.23" width="1578.36" height="148.04"/>
  <!-- Moved cls-11 and cls-2 elements to render on top -->
  <polyline points="584.13 1397.29 588.76 1371.05 579.5 1371.05 584.13 1397.29"/>
  <polyline points="583.95 1211.35 588.58 1185.11 579.32 1185.11 583.95 1211.35"/>
  <polyline points="586.06 1025.41 590.69 999.18 581.44 999.18 586.06 1025.41"/>
  <polyline points="590.29 864.27 594.91 838.03 585.66 838.03 590.29 864.27"/>
  <polyline points="591.34 703.12 595.97 676.89 586.72 676.89 591.34 703.12"/>
  <polyline points="590.29 541.98 594.91 515.74 585.66 515.74 590.29 541.98"/>
  <polyline points="764.71 380.84 769.34 354.6 760.08 354.6 764.71 380.84"/>
  <polyline points="1159.6 178.37 1164.23 152.13 1154.97 152.13 1159.6 178.37"/>
  <text class="cls-11" transform="translate(1073.46 131.41)"><tspan x="0" y="0">c +155,00 m</tspan></text>
  <line class="cls-2" x1="1798.83" y1="174.55" x2="1802.34" y2="149.12"/>
  <line class="cls-2" x1="1798.83" y1="174.55" x2="1814.58" y2="154.28"/>
  <line class="cls-2" x1="1840.1" y1="76.67" x2="1934.44" y2="76.67"/>
  <line class="cls-2" x1="1798.83" y1="174.55" x2="1840.1" y2="76.67"/>
  <text class="cls-11" transform="translate(1934.44 87)"><tspan x="0" y="0">Maks kotehøyde regulering</tspan></text>
  <line class="cls-2" x1="1736.86" y1="112.57" x2="1740.37" y2="87.14"/>
  <line class="cls-2" x1="1736.86" y1="112.57" x2="1752.61" y2="92.31"/>
  <line class="cls-2" x1="1778.13" y1="14.69" x2="1872.47" y2="14.69"/>
  <line class="cls-2" x1="1736.86" y1="112.57" x2="1778.13" y2="14.69"/>
  <text class="cls-11" transform="translate(1872.47 25.02)"><tspan x="0" y="0">Maks kotehøyde teknisk/heis </tspan></text>
  <polyline class="cls-2" points="579.64 1521.24 584.27 1495.01 575.01 1495.01 579.64 1521.24"/>
  <text class="cls-11" transform="translate(499.51 1340.63)"><tspan x="0" y="0">c +125,50 m</tspan></text>
  <text class="cls-11" transform="translate(495.7 1165.01)"><tspan x="0" y="0">c +130,00 m</tspan></text>
  <text class="cls-11" transform="translate(508.37 987.56)"><tspan x="0" y="0">c +134,50 m</tspan></text>
  <text class="cls-11" transform="translate(496.76 816.44)"><tspan x="0" y="0">c +138,40 m</tspan></text>
  <text class="cls-11" transform="translate(489.36 654.84)"><tspan x="0" y="0">c +142,30 m</tspan></text>
  <text class="cls-11" transform="translate(495.7 499.58)"><tspan x="0" y="0">c +146,20 m</tspan></text>
  <text class="cls-11" transform="translate(662.73 323.18)"><tspan x="0" y="0">c +150,10 m</tspan></text>
  <text class="cls-11" transform="translate(492.95 1464.91)"><tspan x="0" y="0">c +122,50 m</tspan></text>
  <!-- Moved cls-3 elements to render on top -->
  <line class="cls-3" x1="584.13" y1="1349.86" x2="526.49" y2="1349.86"/>
  <line class="cls-3" x1="583.95" y1="1174.23" x2="522.69" y2="1174.23"/>
  <line class="cls-3" x1="586.06" y1="996.79" x2="535.36" y2="996.79"/>
  <line class="cls-3" x1="590.29" y1="825.68" x2="523.75" y2="825.68"/>
  <line class="cls-3" x1="591.34" y1="664.07" x2="516.35" y2="664.07"/>
  <line class="cls-3" x1="590.29" y1="508.8" x2="522.69" y2="508.8"/>
  <line class="cls-3" x1="764.71" y1="332.41" x2="689.72" y2="332.41"/>
  <line class="cls-3" x1="1159.6" y1="140.64" x2="1100.45" y2="140.64"/>
  <line class="cls-3" x1="1159.6" y1="178.37" x2="1159.6" y2="140.64"/>
  <line class="cls-3" x1="579.64" y1="1474.14" x2="519.94" y2="1474.14"/>
  <line class="cls-3" x1="584.13" y1="1397.29" x2="584.13" y2="1349.86"/>
  <line class="cls-3" x1="583.95" y1="1211.35" x2="583.95" y2="1174.23"/>
  <line class="cls-3" x1="586.06" y1="1025.41" x2="586.06" y2="996.79"/>
  <line class="cls-3" x1="590.29" y1="864.27" x2="590.29" y2="825.68"/>
  <line class="cls-3" x1="591.34" y1="703.12" x2="591.34" y2="664.07"/>
  <line class="cls-3" x1="590.29" y1="541.98" x2="590.29" y2="508.8"/>
  <line class="cls-3" x1="764.71" y1="380.84" x2="764.71" y2="332.41"/>
  <line class="cls-3" x1="579.64" y1="1521.24" x2="579.64" y2="1474.14"/>
  <!-- Moved cls-10 elements to render on top -->
  <text class="cls-10" transform="translate(1827.75 1169.21)"><tspan x="0" y="0">Pl 1</tspan></text>
  <text class="cls-10" transform="translate(1827.75 966.74)"><tspan x="0" y="0">Pl 2</tspan></text>
  <text class="cls-10" transform="translate(1827.75 805.6)"><tspan x="0" y="0">Pl 3</tspan></text>
  <text class="cls-10" transform="translate(1827.75 644.46)"><tspan x="0" y="0">Pl 4</tspan></text>
  <text class="cls-10" transform="translate(1827.75 483.31)"><tspan x="0" y="0">Pl 5</tspan></text>
  <text class="cls-10" transform="translate(1827.75 322.16)"><tspan x="0" y="0">Pl 6</tspan></text>
  <text class="cls-10" transform="translate(1827.75 1338.62)"><tspan x="0" y="0">Pl U1</tspan></text>
  <text class="cls-10" transform="translate(1827.75 1475.1)"><tspan x="0" y="0">Pl U2</tspan></text>
</svg>