<?xml version="1.0" encoding="UTF-8"?>
<svg id="Layer_1" data-name="Layer 1" xmlns="http://www.w3.org/2000/svg" viewBox="0 0 2391.84 1683.96">
  <defs>
    <style>
      .cls-1 {
        stroke: #000;
        stroke-width: .71px;
      }

      .cls-1, .cls-2, .cls-3, .cls-4 {
        fill: none;
        stroke-linecap: round;
        stroke-miterlimit: 10;
      }

      .cls-5 {
        fill: #d0d2d1;
      }

      .cls-6 {
        font-family: Arial-BoldMT, Arial;
        font-weight: 700;
        stroke: none;
        fill: black;
      }

      .cls-6, .cls-7, .cls-8 {
        font-size: 15.57px;
      }

      .cls-7, .cls-8 {
        font-family: ArialMT, Arial;
      }

      .cls-9, .cls-8 {
        fill: #4c2a26;
      }

      .cls-10 {
        fill: #fff;
      }

      .cls-11 {
        fill: #f4eee1;
      }

      .cls-2 {
        stroke-width: .43px;
      }

      .cls-2, .cls-3, .cls-4 {
        stroke: #4c2a26;
      }

      .cls-12 {
        fill: #d7cca8;
      }

      .cls-3 {
        stroke-width: .28px;
      }

      .cls-4 {
        stroke-width: .51px;
      }

      .cls-13 {
        fill: #c8d6db;
      }

      .cls-14 {
        fill: #9c7278;
      }
      .cls-15 {
        fill: #c8d6db;
      }
    </style>
  </defs>
  <g>
    <g>
      <polygon class="cls-9" points="1469.24 207.38 1469.24 198.56 388.22 198.55 388.22 207.38 1203.36 207.38 1469.24 207.38"/>
      <polygon class="cls-9" points="366.16 348.35 388.22 348.35 388.22 0 366.16 0 366.16 207.38 366.16 348.35"/>
      <rect class="cls-9" x="366.16" y="428.22" width="22.06" height="74.37"/>
      <polygon class="cls-9" points="388.22 834.23 388.22 582.45 366.16 582.45 366.16 820.98 388.22 834.23"/>
      <polygon class="cls-9" points="2034.01 1552.92 2056.08 1540.44 2056.08 0 2034.01 0 2034.01 1540.44 2034.01 1552.92"/>
      <polygon class="cls-9" points="1802.4 1683.96 1824.46 1671.48 388.22 808.49 388.22 834.23 1759.9 1658.42 1802.4 1683.96"/>
      <polygon class="cls-9" points="1824.46 1671.48 2034.01 1552.92 2034.01 1527.57 1802.74 1658.42 1824.46 1671.48"/>
      <rect class="cls-9" x="1495.71" y="692.74" width="8.82" height="127.96"/>
      <polygon class="cls-9" points="1689.85 701.56 1689.85 692.74 1504.54 692.74 1504.54 701.56 1681.03 701.56 1689.85 701.56"/>
      <rect class="cls-9" x="1681.03" y="701.56" width="8.82" height="119.13"/>
      <rect class="cls-9" x="1504.54" y="811.87" width="19.86" height="8.82"/>
      <polygon class="cls-9" points="1617.05 820.69 1617.05 811.87 1568.51 811.87 1568.51 820.69 1597.19 820.69 1617.05 820.69"/>
      <rect class="cls-9" x="1661.17" y="811.87" width="19.86" height="8.82"/>
      <rect class="cls-9" x="1588.37" y="701.56" width="8.82" height="110.31"/>
      <rect class="cls-9" x="2002.03" y="262.53" width="19.86" height="13.24"/>
      <rect class="cls-9" x="2002.03" y="721.42" width="19.86" height="13.24"/>
      <rect class="cls-9" x="2002.03" y="950.86" width="19.86" height="13.24"/>
      <rect class="cls-9" x="2002.03" y="1409.74" width="19.86" height="13.24"/>
      <rect class="cls-9" x="1187.03" y="1262.08" width="19.86" height="13.24" transform="translate(-507.01 1641.26) rotate(-59)"/>
      <rect class="cls-9" x="990.36" y="1143.91" width="19.86" height="13.24" transform="translate(-501.09 1415.38) rotate(-59)"/>
      <rect class="cls-9" x="793.69" y="1025.73" width="19.86" height="13.24" transform="translate(-495.18 1189.48) rotate(-59)"/>
      <rect class="cls-9" x="597.02" y="907.56" width="19.86" height="13.24" transform="translate(-489.26 963.6) rotate(-59)"/>
      <rect class="cls-9" x="2002.03" y="491.97" width="19.86" height="13.24"/>
      <rect class="cls-9" x="2002.03" y="1180.3" width="19.86" height="13.24"/>
      <rect class="cls-9" x="400.35" y="491.97" width="19.86" height="13.24"/>
      <rect class="cls-9" x="400.35" y="789.39" width="19.86" height="13.24" transform="translate(-338.79 305.23) rotate(-29.5)"/>
      <rect class="cls-9" x="1383.7" y="1380.25" width="19.86" height="13.24" transform="translate(-512.92 1867.15) rotate(-59)"/>
      <rect class="cls-9" x="400.35" y="262.53" width="19.86" height="13.24"/>
      <polygon class="cls-9" points="2034.01 22.06 2034.01 0 1230.97 0 1230.97 22.06 1955.94 22.06 2034.01 22.06"/>
      <polygon class="cls-9" points="1617.31 820.96 1617.31 812.97 1617.05 812.97 1617.05 820.69 1613.78 820.69 1613.78 820.96 1617.05 820.96 1617.31 820.96"/>
      <polygon class="cls-9" points="1664.44 820.96 1664.44 820.69 1661.17 820.69 1661.17 812.97 1660.91 812.97 1660.91 820.96 1661.17 820.96 1664.44 820.96"/>
      <polygon class="cls-9" points="1524.66 820.96 1524.66 812.97 1524.39 812.97 1524.39 820.69 1521.13 820.69 1521.13 820.96 1524.39 820.96 1524.66 820.96"/>
      <polygon class="cls-9" points="1571.78 820.96 1571.78 820.69 1568.51 820.69 1568.51 812.97 1568.25 812.97 1568.25 820.96 1568.51 820.96 1571.78 820.96"/>
      <rect class="cls-9" x="366.16" y="348.79" width="22.06" height="1.99"/>
      <rect class="cls-9" x="366.16" y="425.79" width="22.06" height="1.99"/>
      <rect class="cls-9" x="388.22" y="494.21" width="12.13" height="8.82"/>
      <polygon class="cls-9" points="694.65 503.03 694.65 494.21 420.21 494.21 420.21 503.03 450.78 503.03 694.65 503.03"/>
      <polygon class="cls-9" points="864.53 503.03 864.53 494.21 774.52 494.21 774.52 503.03 827.07 503.03 864.53 503.03"/>
      <polygon class="cls-9" points="1486.89 503.03 1486.89 494.21 944.39 494.21 944.39 503.03 1203.36 503.03 1486.89 503.03"/>
      <polygon class="cls-9" points="1451.09 22.06 1451.09 0 978.97 0 978.97 22.06 1203.36 22.06 1451.09 22.06"/>
      <polygon class="cls-9" points="696.61 591.28 772.12 591.28 772.12 582.45 388.22 582.45 388.22 591.28 687.79 591.28 696.61 591.28"/>
      <rect class="cls-9" x="366.16" y="503.03" width="22.06" height="1.99"/>
      <rect class="cls-9" x="366.16" y="580.03" width="22.06" height="1.99"/>
      <polygon class="cls-9" points="696.61 678.37 696.61 591.28 687.79 591.28 687.79 673.06 696.61 678.37"/>
      <rect class="cls-9" x="695.09" y="494.21" width="1.99" height="8.82"/>
      <rect class="cls-9" x="772.09" y="494.21" width="1.99" height="8.82"/>
      <polygon class="cls-9" points="1583.96 304.23 1583.96 277.98 1575.14 277.98 1575.14 304.23 1579.65 304.23 1583.96 304.23"/>
      <polygon class="cls-9" points="1583.96 582.45 1583.96 384.09 1575.13 384.09 1575.13 582.45 1579.65 582.45 1583.96 582.45"/>
      <polygon class="cls-9" points="1655.63 1254.6 1660.18 1247.04 696.61 668.07 696.61 678.37 1652.61 1252.79 1655.63 1254.6"/>
      <rect class="cls-9" x="1486.89" y="207.38" width="8.82" height="295.65"/>
      <polygon class="cls-9" points="754.44 22.06 754.44 0 388.22 0 388.22 22.06 450.78 22.06 754.44 22.06"/>
      <polygon class="cls-9" points="1504.54 1077.73 1504.54 917.76 1495.71 917.76 1495.71 1072.43 1504.54 1077.73"/>
      <polygon class="cls-9" points="1689.85 926.59 1689.85 917.76 1504.54 917.76 1504.54 926.59 1681.03 926.59 1689.85 926.59"/>
      <polygon class="cls-9" points="1689.85 1178.79 1689.85 926.59 1681.03 926.59 1681.03 1173.49 1689.85 1178.79"/>
      <polygon class="cls-9" points="1689.85 1189.09 1689.85 1178.79 1504.54 1067.44 1504.54 1077.73 1686.07 1186.81 1689.85 1189.09"/>
      <rect class="cls-9" x="1469.24" y="79.42" width="114.72" height="8.82"/>
      <polygon class="cls-9" points="1579.65 207.38 1583.96 207.38 1583.96 198.55 1548.66 198.55 1548.66 207.38 1575.13 207.38 1579.65 207.38"/>
      <polygon class="cls-9" points="1478.06 207.38 1504.54 207.38 1504.54 198.55 1469.24 198.55 1469.24 207.38 1478.06 207.38"/>
      <polygon class="cls-9" points="1575.13 198.55 1583.96 198.55 1583.96 88.25 1575.13 88.25 1575.13 140.18 1575.13 198.55"/>
      <rect class="cls-9" x="1469.24" y="88.25" width="8.82" height="110.31"/>
      <polygon class="cls-9" points="1681.03 591.28 1689.85 591.28 1689.85 582.46 1495.71 582.45 1495.71 591.28 1639.5 591.28 1681.03 591.28"/>
      <rect class="cls-9" x="1495.71" y="591.28" width="8.82" height="101.46"/>
      <polygon class="cls-9" points="1416.29 1014.41 1416.29 591.28 1407.46 591.28 1407.46 1009.11 1416.29 1014.41"/>
      <rect class="cls-9" x="1681.03" y="591.28" width="8.82" height="101.46"/>
      <rect class="cls-9" x="1632.88" y="591.28" width="6.62" height="101.46"/>
      <polygon class="cls-9" points="1495.71 1072.43 1495.71 1062.14 772.12 627.36 772.12 637.66 1416.29 1024.71 1495.71 1072.43"/>
      <polygon class="cls-9" points="780.95 632.66 780.95 582.45 772.12 582.45 772.12 627.36 780.95 632.66"/>
      <polygon class="cls-9" points="1495.71 591.28 1495.71 582.46 780.95 582.45 780.95 591.28 1416.29 591.28 1495.71 591.28"/>
      <rect class="cls-9" x="1575.13" y="269.15" width="114.72" height="8.82"/>
      <polygon class="cls-9" points="1583.96 221.99 1583.96 13.24 1575.13 13.24 1575.13 221.99 1579.65 221.99 1583.96 221.99"/>
      <rect class="cls-9" x="1575.13" y="266.55" width="8.82" height="2.6"/>
      <rect class="cls-9" x="1583.96" y="13.24" width="105.9" height="8.82"/>
      <rect class="cls-9" x="1681.03" y="22.06" width="8.82" height="247.09"/>
      <polygon class="cls-9" points="1583.96 224.41 1583.96 222.43 1575.13 222.43 1575.13 224.41 1579.65 224.41 1583.96 224.41"/>
      <rect class="cls-9" x="1575.13" y="264.12" width="8.82" height="1.99"/>
      <rect class="cls-9" x="1469.24" y="22.06" width="8.82" height="57.36"/>
      <rect class="cls-9" x="1681.03" y="820.69" width="8.82" height="8.61"/>
      <rect class="cls-9" x="1681.03" y="909.16" width="8.82" height="8.6"/>
      <rect class="cls-9" x="1640.64" y="1212.51" width="64.96" height="8.82" transform="translate(-231.71 2024.31) rotate(-59)"/>
      <polygon class="cls-5" points="1407.46 1009.11 1407.46 591.28 780.95 591.28 780.95 632.66 1391.51 999.52 1407.46 1009.11"/>
      <polygon class="cls-5" points="1588.37 692.74 1632.88 692.74 1632.88 591.28 1504.53 591.28 1504.54 692.74 1583.96 692.74 1588.37 692.74"/>
      <rect class="cls-12" x="1689.85" y="778.91" width=".88" height="50.83"/>
      <rect class="cls-12" x="2002.03" y="950.86" width="19.86" height="13.24"/>
      <polygon class="cls-12" points="2021.88 1193.53 2002.03 1193.53 2002.03 1180.3 2021.88 1180.3 2021.88 1189.08 2021.88 1193.53"/>
      <rect class="cls-12" x="2002.03" y="1409.74" width="19.86" height="13.24"/>
      <polygon class="cls-12" points="1802.74 1658.42 2034.01 1527.57 2034.01 778.91 1690.73 778.91 1690.73 831.72 1689.85 831.73 1689.85 906.73 1690.73 906.73 1690.73 908.72 1689.85 908.72 1689.85 1189.09 1693.63 1191.36 1655.63 1254.6 1776.83 1327.43 1637.58 1559.19 1802.4 1658.22 1802.74 1658.42"/>
      <rect class="cls-5" x="400.35" y="262.53" width="19.86" height="13.24"/>
      <polygon class="cls-5" points="774.07 494.21 794.15 494.21 794.15 207.38 388.22 207.38 388.22 494.21 400.35 494.21 400.35 491.97 420.21 491.97 420.21 494.21 772.09 494.21 774.07 494.21"/>
      <rect class="cls-5" x="2002.03" y="262.53" width="19.86" height="13.24"/>
      <rect class="cls-5" x="2002.03" y="491.97" width="19.86" height="13.24"/>
      <polygon class="cls-5" points="2002.03 734.65 2002.03 721.42 2021.88 721.42 2021.88 734.65 2003.66 734.65 2002.03 734.65"/>
      <polygon class="cls-15" points="1689.85 778.91 2034.01 778.91 2034.01 22.06 1689.85 22.06 1689.85 277.98 1583.96 277.98 1583.96 304.67 1584.84 304.67 1584.84 306.66 1583.96 306.66 1583.96 381.67 1584.84 381.67 1584.84 383.65 1583.96 383.65 1583.96 582.45 1689.85 582.46 1689.85 771.22 1689.85 778.91"/>
      <polygon class="cls-11" points="404.9 806.66 398.38 795.14 415.66 785.36 422.18 796.88 410.91 803.26 404.9 806.66"/>
      <polygon class="cls-11" points="592.75 931.39 599 920.99 596.16 919.28 606.39 902.26 609.22 903.97 732 699.63 687.79 673.06 687.79 591.28 564.71 591.28 564.71 767.77 388.22 767.77 388.22 808.49 564.71 914.54 592.75 931.39"/>
      <polygon class="cls-11" points="1197.52 1280.61 1186.17 1273.8 1196.4 1256.78 1207.74 1263.59 1203.36 1270.89 1197.52 1280.61"/>
      <polygon class="cls-11" points="1383.79 1406.7 1390.04 1396.3 1382.84 1391.97 1393.07 1374.95 1400.27 1379.28 1523.05 1174.94 1215.27 990 1076.01 1221.76 1382.84 1406.12 1383.79 1406.7"/>
      <polygon class="cls-5" points="1014.77 494.21 1486.89 494.21 1486.89 207.38 1014.77 207.38 1014.77 455.7 1014.77 494.21"/>
      <polygon class="cls-5" points="864.53 494.21 1005.94 494.21 1005.94 207.38 802.98 207.38 802.98 494.21 827.07 494.21 864.53 494.21"/>
      <polygon class="cls-9" points="1501.27 207.64 1504.8 207.64 1504.8 199.66 1504.54 199.66 1504.54 207.38 1501.27 207.38 1501.27 207.64"/>
      <polygon class="cls-9" points="1551.92 207.64 1551.92 207.38 1548.66 207.38 1548.66 199.66 1548.39 199.66 1548.39 207.64 1548.66 207.64 1551.92 207.64"/>
      <rect class="cls-9" x="864.97" y="494.21" width="1.99" height="8.82"/>
      <rect class="cls-9" x="941.96" y="494.21" width="1.99" height="8.82"/>
      <polygon class="cls-13" points="450.78 767.77 564.71 767.77 564.71 591.28 388.22 591.28 388.22 767.77 450.78 767.77"/>
      <polygon class="cls-11" points="791.75 1050.96 798 1040.56 792.83 1037.45 803.06 1020.43 808.23 1023.54 931 819.2 732 699.63 609.22 903.97 617.73 909.08 607.51 926.1 599 920.99 592.75 931.39 780.95 1044.47 791.75 1050.96"/>
      <rect class="cls-11" x="990.36" y="1143.91" width="19.86" height="13.24" transform="translate(-501.09 1415.37) rotate(-59)"/>
      <polygon class="cls-11" points="1076.01 1221.76 1215.27 990 931 819.2 808.23 1023.54 814.4 1027.25 804.18 1044.27 798 1040.56 791.75 1050.96 1011.07 1182.74 1076.01 1221.76"/>
      <polygon class="cls-11" points="1637.58 1559.19 1776.83 1327.43 1523.05 1174.94 1400.27 1379.28 1404.41 1381.76 1394.19 1398.78 1390.04 1396.3 1383.79 1406.7 1523.05 1490.37 1637.58 1559.19"/>
      <polygon class="cls-9" points="1584.84 306.66 1584.84 304.67 1572.93 304.67 1572.93 306.66 1579.65 306.66 1584.84 306.66"/>
      <polygon class="cls-9" points="1584.84 383.65 1584.84 381.67 1572.93 381.67 1572.93 383.65 1579.65 383.65 1584.84 383.65"/>
      <rect class="cls-9" x="1678.82" y="829.74" width="11.91" height="1.99"/>
      <rect class="cls-9" x="1678.82" y="906.73" width="11.91" height="1.99"/>
      <rect class="cls-10" x="474.31" y="89.7" width="22.18" height="17.51"/>
      <text class="cls-8" transform="translate(474.31 103.71)"><tspan x="0" y="0">DN</tspan></text>
    </g>
    <text class="cls-6" transform="translate(581.14 106.23)"><tspan x="0" y="0">RAMPE NED</tspan></text>
    <text class="cls-6" transform="translate(1095.53 706.3)"><tspan x="0" y="0">TEKROM VENT</tspan></text>
    <text class="cls-6" transform="translate(1095.53 724.39)"><tspan x="0" y="0">73m2 (80)</tspan></text>
    <text class="cls-7" transform="translate(1547.05 656.27)"><tspan x="0" y="0">HCWC</tspan></text>
    <text class="cls-7" transform="translate(1644.05 641.3)"><tspan x="0" y="0">SJAKT</tspan></text>
    <text class="cls-6" transform="translate(1811.6 1172.82)"><tspan x="0" y="0">LAGER OT</tspan></text>
    <text class="cls-6" transform="translate(1811.6 1190.92)"><tspan x="0" y="0">144m2 (150)</tspan></text>
    <text class="cls-6" transform="translate(478.23 333.8)"><tspan x="0" y="0">VAREMOTTAK</tspan></text>
    <text class="cls-6" transform="translate(478.23 351.9)"><tspan x="0" y="0">AREAL: 60m2</tspan></text>
    <text class="cls-6" transform="translate(845.39 286.05)"><tspan x="0" y="0">AVFALL</tspan></text>
    <text class="cls-6" transform="translate(845.39 304.14)"><tspan x="0" y="0">AREAL: 30m2</tspan></text>
    <text class="cls-6" transform="translate(1789.48 386.67)"><tspan x="0" y="0">LAGER JAM</tspan></text>
    <text class="cls-6" transform="translate(1789.48 404.76)"><tspan x="0" y="0">150 (250)</tspan></text>
    <text class="cls-6" transform="translate(1222.21 1172.82)"><tspan x="0" y="0">PREPREGROM </tspan></text>
    <text class="cls-6" transform="translate(1222.21 1190.92)"><tspan x="0" y="0">- 50M2</tspan></text>
    <text class="cls-6" transform="translate(588.3 731.79)"><tspan x="0" y="0">OVNER - 27M2</tspan></text>
    <text class="cls-6" transform="translate(1517.5 1351.84)"><tspan x="0" y="0">FRESEMASKINER </tspan></text>
    <text class="cls-6" transform="translate(1517.5 1369.93)"><tspan x="0" y="0">- 40M2</tspan></text>
    <text class="cls-6" transform="translate(1216.61 332.37)"><tspan x="0" y="0">TEKNISK ROM </tspan></text>
    <text class="cls-6" transform="translate(1216.61 350.46)"><tspan x="0" y="0">RØRTEKNIKK</tspan></text>
    <text class="cls-6" transform="translate(1216.61 368.56)"><tspan x="0" y="0">70m2 (80)</tspan></text>
    <line class="cls-1" x1="1491.3" y1="435.28" x2="1579.55" y2="435.28"/>
    <line class="cls-1" x1="1575.13" y1="435.28" x2="1571.82" y2="438.59"/>
    <line class="cls-1" x1="1575.13" y1="435.28" x2="1578.44" y2="431.97"/>
    <line class="cls-1" x1="1575.13" y1="435.28" x2="1575.13" y2="439.69"/>
    <line class="cls-1" x1="1575.13" y1="435.28" x2="1575.13" y2="435.01"/>
    <line class="cls-1" x1="1495.71" y1="435.28" x2="1492.4" y2="438.59"/>
    <line class="cls-1" x1="1495.71" y1="435.28" x2="1499.02" y2="431.97"/>
    <line class="cls-1" x1="1495.71" y1="435.28" x2="1495.71" y2="439.69"/>
    <line class="cls-1" x1="1495.71" y1="435.28" x2="1495.71" y2="435.01"/>
    <text class="cls-7" transform="translate(1518.49 431.94)"><tspan x="0" y="0">1800</tspan></text>
    <line class="cls-1" x1="1223.06" y1="586.87" x2="1223.06" y2="498.62"/>
    <line class="cls-1" x1="1223.06" y1="503.03" x2="1226.37" y2="506.34"/>
    <line class="cls-1" x1="1223.06" y1="503.03" x2="1219.75" y2="499.72"/>
    <line class="cls-1" x1="1223.06" y1="503.03" x2="1227.47" y2="503.03"/>
    <line class="cls-1" x1="1223.06" y1="503.03" x2="1222.79" y2="503.03"/>
    <line class="cls-1" x1="1223.06" y1="582.46" x2="1226.36" y2="585.76"/>
    <line class="cls-1" x1="1223.06" y1="582.46" x2="1219.75" y2="579.15"/>
    <line class="cls-1" x1="1223.06" y1="582.46" x2="1227.47" y2="582.46"/>
    <line class="cls-1" x1="1223.06" y1="582.46" x2="1222.79" y2="582.46"/>
    <text class="cls-7" transform="translate(1219.75 559.71) rotate(-90)"><tspan x="0" y="0">1800</tspan></text>
    <text class="cls-6" transform="translate(449.9 656.56)"><tspan x="0" y="0">Trafo</tspan></text>
    <text class="cls-6" transform="translate(449.9 674.66)"><tspan x="0" y="0">16m2</tspan></text>
    <text class="cls-6" transform="translate(709.69 876.35)"><tspan x="0" y="0">GIPSROM 30 m2</tspan></text>
    <text class="cls-6" transform="translate(940.27 1011.74)"><tspan x="0" y="0">SLIPEROM</tspan></text>
    <text class="cls-6" transform="translate(940.27 1029.83)"><tspan x="0" y="0">45m2</tspan></text>
  </g>
  <rect class="cls-14" x="388.22" y="22.06" width="1081.02" height="176.5"/>
                                                                                                                                                                                                                                                                                                                                                                                                                                                                                                                                                                                                                                                                                                                                                                                                
      
      
      
                                                
            
                        
                                                                                                                                                                                    
      
      
      
                                                
            
                        
                                                                                                                                                                                    
      
      
      
                                                            
            
            
                                                                                                                                                                                                                                                                                                                                                                                                                                                                                                                                                                                                                                                
                        
            
                                                                                                                                                                                                                                                                                                      
      
      
      
      
      
      
      
      
      
            
      
      
      
      
      
      
      
      
      
                                                                        
                                                                  
                                                                  
      
            
                                                                                                                                                                                                                                                                                                                                                                              
      
      
      
      
      
            
      
      
      
      
      
            
      
      
      
      
      
                                                                                                                                                                                                                        
            
            
                                                
                                                                                                                                                                                                                                                                                                                                                                                                                                                      
      
      
      
                                                            
            
            
                                                                                                                                                                                                      
      
      
      
                              
                        
            
                                                                                                                                                                                                                                                                                                                  
      
      
      
                                                            
            
            
                                                                                                                                                                                                                                                                                                                                                                                                                                                                                                                                                                                                                                                                                                                                                                                                                                                                                                                                                                                                                                                                                                                                                                                                                                                                                                                                                                                                                                                                                                                                <!-- Moved cls-2, cls-3, and cls-4 elements to render on top -->
<line class="cls-3" x1="1396.43" y1="745.71" x2="1407.46" y2="745.71"/>
<line class="cls-3" x1="1378.78" y1="745.71" x2="1387.61" y2="745.71"/>
<line class="cls-3" x1="1361.13" y1="745.71" x2="1369.96" y2="745.71"/>
<line class="cls-3" x1="1343.48" y1="745.71" x2="1352.31" y2="745.71"/>
<line class="cls-3" x1="1325.83" y1="745.71" x2="1334.66" y2="745.71"/>
<line class="cls-3" x1="1305.98" y1="745.71" x2="1317.01" y2="745.71"/>
<line class="cls-3" x1="1305.98" y1="734.68" x2="1305.98" y2="745.71"/>
<line class="cls-3" x1="1305.98" y1="717.03" x2="1305.98" y2="725.85"/>
<line class="cls-3" x1="1305.98" y1="699.38" x2="1305.98" y2="708.21"/>
<line class="cls-3" x1="1305.98" y1="681.73" x2="1305.98" y2="690.56"/>
<line class="cls-3" x1="1305.98" y1="664.08" x2="1305.98" y2="672.91"/>
<line class="cls-3" x1="1305.98" y1="646.43" x2="1305.98" y2="655.26"/>
<line class="cls-3" x1="1305.98" y1="628.78" x2="1305.98" y2="637.61"/>
<line class="cls-3" x1="1305.98" y1="611.13" x2="1305.98" y2="619.96"/>
<line class="cls-3" x1="1305.98" y1="591.28" x2="1305.98" y2="602.31"/>
<line class="cls-3" x1="1639.5" y1="693.83" x2="1681.03" y2="591.28"/>
<line class="cls-3" x1="1402.76" y1="598.43" x2="1407.46" y2="591.28"/>
<line class="cls-3" x1="1393.07" y1="613.18" x2="1397.92" y2="605.81"/>
<line class="cls-3" x1="1383.38" y1="627.93" x2="1388.22" y2="620.56"/>
<line class="cls-3" x1="1373.68" y1="642.68" x2="1378.53" y2="635.31"/>
<line class="cls-3" x1="1363.99" y1="657.43" x2="1368.84" y2="650.06"/>
<line class="cls-3" x1="1354.3" y1="672.18" x2="1359.14" y2="664.81"/>
<line class="cls-3" x1="1344.61" y1="686.93" x2="1349.45" y2="679.56"/>
<line class="cls-3" x1="1334.91" y1="701.68" x2="1339.76" y2="694.31"/>
<line class="cls-3" x1="1325.22" y1="716.43" x2="1330.07" y2="709.06"/>
<line class="cls-3" x1="1315.53" y1="731.18" x2="1320.37" y2="723.81"/>
<line class="cls-3" x1="1305.98" y1="745.71" x2="1310.68" y2="738.56"/>
<line class="cls-3" x1="1637.58" y1="1559.19" x2="1776.83" y2="1327.43"/>
<line class="cls-3" x1="1383.79" y1="1406.7" x2="1637.58" y2="1559.19"/>
<line class="cls-3" x1="1523.05" y1="1174.94" x2="1383.79" y2="1406.7"/>
<line class="cls-3" x1="1776.83" y1="1327.43" x2="1523.05" y2="1174.94"/>
<line class="cls-3" x1="1076.01" y1="1221.76" x2="1215.27" y2="990"/>
<line class="cls-3" x1="791.75" y1="1050.96" x2="1076.01" y2="1221.76"/>
<line class="cls-3" x1="931" y1="819.2" x2="791.75" y2="1050.96"/>
<line class="cls-3" x1="1215.27" y1="990" x2="931" y2="819.2"/>
<line class="cls-3" x1="791.75" y1="1050.96" x2="931" y2="819.2"/>
<line class="cls-3" x1="592.75" y1="931.39" x2="791.75" y2="1050.96"/>
<line class="cls-3" x1="732" y1="699.63" x2="592.75" y2="931.39"/>
<line class="cls-3" x1="931" y1="819.2" x2="732" y2="699.63"/>
<line class="cls-3" x1="564.71" y1="767.77" x2="564.71" y2="591.28"/>
<line class="cls-3" x1="388.22" y1="767.77" x2="564.71" y2="767.77"/>
<line class="cls-3" x1="388.22" y1="591.28" x2="388.22" y2="767.77"/>
<line class="cls-3" x1="564.71" y1="591.28" x2="388.22" y2="591.28"/>
<line class="cls-3" x1="2056.08" y1="1540.44" x2="1802.4" y2="1683.96"/>
<line class="cls-3" x1="2056.08" x2="2056.08" y2="1540.44"/>
<line class="cls-3" x1="1802.4" y1="1683.96" x2="1236.04" y2="1343.65"/>
<line class="cls-3" x1="1005.94" y1="207.38" x2="802.98" y2="207.38"/>
<line class="cls-3" x1="1005.94" y1="494.21" x2="1005.94" y2="207.38"/>
<line class="cls-3" x1="802.98" y1="494.21" x2="1005.94" y2="494.21"/>
<line class="cls-3" x1="802.98" y1="207.38" x2="802.98" y2="494.21"/>
<line class="cls-3" x1="1383.79" y1="1406.7" x2="1523.05" y2="1174.94"/>
<line class="cls-3" x1="1076.01" y1="1221.76" x2="1383.79" y2="1406.7"/>
<line class="cls-3" x1="1215.27" y1="990" x2="1076.01" y2="1221.76"/>
<line class="cls-3" x1="1523.05" y1="1174.94" x2="1215.27" y2="990"/>
<line class="cls-3" x1="592.75" y1="931.39" x2="732" y2="699.63"/>
<line class="cls-3" x1="388.22" y1="808.49" x2="592.75" y2="931.39"/>
<line class="cls-3" x1="388.22" y1="767.77" x2="388.22" y2="808.49"/>
<line class="cls-3" x1="564.71" y1="767.77" x2="388.22" y2="767.77"/>
<line class="cls-3" x1="564.71" y1="591.25" x2="564.71" y2="767.77"/>
<line class="cls-3" x1="687.79" y1="591.25" x2="564.71" y2="591.25"/>
<line class="cls-3" x1="687.79" y1="673.06" x2="687.79" y2="591.25"/>
<line class="cls-3" x1="732" y1="699.63" x2="687.79" y2="673.06"/>
<line class="cls-3" x1="1689.85" y1="778.91" x2="2034.01" y2="778.91"/>
<line class="cls-3" x1="1689.85" y1="582.46" x2="1689.85" y2="778.91"/>
<line class="cls-3" x1="1583.96" y1="582.45" x2="1689.85" y2="582.46"/>
<line class="cls-3" x1="1583.96" y1="277.09" x2="1583.96" y2="582.45"/>
<line class="cls-3" x1="1689.85" y1="277.09" x2="1583.96" y2="277.09"/>
<line class="cls-3" x1="1689.85" y1="22.06" x2="1689.85" y2="277.09"/>
<line class="cls-3" x1="2034.01" y1="22.06" x2="1689.85" y2="22.06"/>
<line class="cls-3" x1="2034.01" y1="778.91" x2="2034.01" y2="22.06"/>
<line class="cls-3" x1="794.15" y1="207.38" x2="388.22" y2="207.38"/>
<line class="cls-3" x1="794.15" y1="494.21" x2="794.15" y2="207.38"/>
<line class="cls-3" x1="388.22" y1="494.21" x2="794.15" y2="494.21"/>
<line class="cls-3" x1="388.22" y1="207.38" x2="388.22" y2="494.21"/>
<line class="cls-3" x1="1776.83" y1="1327.43" x2="1637.58" y2="1559.19"/>
<line class="cls-3" x1="1651.85" y1="1252.33" x2="1776.83" y2="1327.43"/>
<line class="cls-3" x1="1689.85" y1="1189.08" x2="1651.85" y2="1252.33"/>
<line class="cls-3" x1="1689.85" y1="778.91" x2="1689.85" y2="1189.08"/>
<line class="cls-3" x1="2034.01" y1="778.91" x2="1689.85" y2="778.91"/>
<line class="cls-3" x1="2034.01" y1="1527.57" x2="2034.01" y2="778.91"/>
<line class="cls-3" x1="1802.74" y1="1658.42" x2="2034.01" y2="1527.57"/>
<line class="cls-3" x1="1637.58" y1="1559.19" x2="1802.74" y2="1658.42"/>
<line class="cls-3" x1="1632.88" y1="693.83" x2="1632.88" y2="591.28"/>
<line class="cls-3" x1="1504.53" y1="693.83" x2="1632.88" y2="693.83"/>
<line class="cls-3" x1="1504.53" y1="591.28" x2="1504.53" y2="693.83"/>
<line class="cls-3" x1="1632.88" y1="591.28" x2="1504.53" y2="591.28"/>
<line class="cls-3" x1="1407.46" y1="1009.11" x2="1407.46" y2="591.28"/>
<line class="cls-3" x1="780.95" y1="632.66" x2="1407.46" y2="1009.11"/>
<line class="cls-3" x1="780.95" y1="591.28" x2="780.95" y2="632.66"/>
<line class="cls-3" x1="1407.46" y1="591.28" x2="780.95" y2="591.28"/>
<line class="cls-3" x1="1014.77" y1="494.21" x2="1486.89" y2="494.21"/>
<line class="cls-3" x1="1014.77" y1="207.38" x2="1014.77" y2="494.21"/>
<line class="cls-3" x1="1486.89" y1="207.38" x2="1014.77" y2="207.38"/>
<line class="cls-3" x1="1486.89" y1="494.21" x2="1486.89" y2="207.38"/>
<line class="cls-3" x1="485.39" y1="110.31" x2="1181.11" y2="22.06"/>
<line class="cls-3" x1="1181.11" y1="198.55" x2="485.39" y2="110.31"/>
<line class="cls-3" x1="366.16" x2="361.79" y2="818.28"/>
<line class="cls-3" x1="366.16" x2="2063.19" y2=".04"/>
<polyline class="cls-3" points="1690.73 869.23 1698.05 868.51 1705.09 866.38 1711.57 862.91 1717.25 858.25 1721.92 852.56 1725.38 846.08 1727.52 839.04 1728.24 831.73"/>
<line class="cls-3" x1="1690.73" y1="831.73" x2="1728.24" y2="831.73"/>
<line class="cls-3" x1="1727.52" y1="899.42" x2="1728.24" y2="906.74"/>
<line class="cls-3" x1="1726.88" y1="897.31" x2="1727.52" y2="899.42"/>
<line class="cls-3" x1="1717.25" y1="880.22" x2="1721.45" y2="885.33"/>
<line class="cls-3" x1="1712.14" y1="876.02" x2="1717.25" y2="880.22"/>
<line class="cls-3" x1="1698.05" y1="869.95" x2="1700.16" y2="870.59"/>
<line class="cls-3" x1="1690.73" y1="869.23" x2="1698.05" y2="869.95"/>
<line class="cls-3" x1="1690.73" y1="906.73" x2="1728.24" y2="906.74"/>
<line class="cls-2" x1="1690.73" y1="908.72" x2="1690.73" y2="906.73"/>
<line class="cls-2" x1="1687.2" y1="906.21" x2="1687.2" y2="906.73"/>
<line class="cls-2" x1="1685.26" y1="906.21" x2="1687.2" y2="906.21"/>
<line class="cls-2" x1="1685.26" y1="906.73" x2="1685.26" y2="906.21"/>
<line class="cls-2" x1="1678.82" y1="906.73" x2="1678.82" y2="908.72"/>
<line class="cls-2" x1="1685.26" y1="906.73" x2="1678.82" y2="906.73"/>
<line class="cls-2" x1="1690.73" y1="906.73" x2="1687.2" y2="906.73"/>
<line class="cls-2" x1="1690.73" y1="908.72" x2="1678.82" y2="908.72"/>
<line class="cls-2" x1="1690.73" y1="829.74" x2="1690.73" y2="831.73"/>
<line class="cls-2" x1="1687.2" y1="832.25" x2="1687.2" y2="831.73"/>
<line class="cls-2" x1="1685.26" y1="832.25" x2="1687.2" y2="832.25"/>
<line class="cls-2" x1="1685.26" y1="831.73" x2="1685.26" y2="832.25"/>
<line class="cls-2" x1="1678.82" y1="831.72" x2="1678.82" y2="829.74"/>
<line class="cls-2" x1="1685.26" y1="831.73" x2="1678.82" y2="831.72"/>
<line class="cls-2" x1="1690.73" y1="831.73" x2="1687.2" y2="831.73"/>
<line class="cls-2" x1="1690.73" y1="829.74" x2="1678.82" y2="829.74"/>
<line class="cls-3" x1="1678.82" y1="906.73" x2="1690.73" y2="906.73"/>
<line class="cls-3" x1="1690.73" y1="906.73" x2="1690.73" y2="831.73"/>
<line class="cls-3" x1="1690.73" y1="831.73" x2="1678.82" y2="831.72"/>
<line class="cls-3" x1="1678.82" y1="831.72" x2="1678.82" y2="906.73"/>
<line class="cls-3" x1="1678.82" y1="831.72" x2="1678.82" y2="906.73"/>
<line class="cls-3" x1="1690.73" y1="831.73" x2="1678.82" y2="831.72"/>
<line class="cls-3" x1="1690.73" y1="906.73" x2="1690.73" y2="831.73"/>
<line class="cls-3" x1="1678.82" y1="906.73" x2="1690.73" y2="906.73"/>
<line class="cls-3" x1="1678.82" y1="906.73" x2="1678.82" y2="908.72"/>
<line class="cls-3" x1="1690.73" y1="908.72" x2="1678.82" y2="908.72"/>
<line class="cls-3" x1="1690.73" y1="908.72" x2="1690.73" y2="906.73"/>
<line class="cls-3" x1="1678.82" y1="831.72" x2="1678.82" y2="829.74"/>
<line class="cls-3" x1="1690.73" y1="829.74" x2="1690.73" y2="831.73"/>
<line class="cls-3" x1="1678.82" y1="829.74" x2="1690.73" y2="829.74"/>
<line class="cls-2" x1="1678.82" y1="908.72" x2="1690.73" y2="908.72"/>
<line class="cls-2" x1="1678.82" y1="906.73" x2="1678.82" y2="908.72"/>
<line class="cls-2" x1="1690.73" y1="906.73" x2="1678.82" y2="906.73"/>
<line class="cls-2" x1="1690.73" y1="908.72" x2="1690.73" y2="906.73"/>
<line class="cls-2" x1="1690.73" y1="831.73" x2="1690.73" y2="829.74"/>
<line class="cls-2" x1="1678.82" y1="831.72" x2="1690.73" y2="831.73"/>
<line class="cls-2" x1="1678.82" y1="829.74" x2="1678.82" y2="831.72"/>
<line class="cls-2" x1="1690.73" y1="829.74" x2="1678.82" y2="829.74"/>
<polyline class="cls-3" points="1584.84 344.16 1592.16 343.44 1599.19 341.31 1605.68 337.84 1611.36 333.18 1616.03 327.49 1619.49 321.01 1621.63 313.97 1622.35 306.66"/>
<line class="cls-3" x1="1584.84" y1="306.66" x2="1622.35" y2="306.66"/>
<line class="cls-3" x1="1621.63" y1="374.35" x2="1622.35" y2="381.67"/>
<line class="cls-3" x1="1620.99" y1="372.24" x2="1621.63" y2="374.35"/>
<line class="cls-3" x1="1611.36" y1="355.15" x2="1615.56" y2="360.26"/>
<line class="cls-3" x1="1606.25" y1="350.95" x2="1611.36" y2="355.15"/>
<line class="cls-3" x1="1592.16" y1="344.88" x2="1594.27" y2="345.52"/>
<line class="cls-3" x1="1584.84" y1="344.16" x2="1592.16" y2="344.88"/>
<line class="cls-3" x1="1584.84" y1="381.67" x2="1622.35" y2="381.67"/>
<line class="cls-2" x1="1584.84" y1="383.65" x2="1584.84" y2="381.67"/>
<line class="cls-2" x1="1581.31" y1="381.14" x2="1581.31" y2="381.67"/>
<line class="cls-2" x1="1579.37" y1="381.14" x2="1581.31" y2="381.14"/>
<line class="cls-2" x1="1579.37" y1="381.67" x2="1579.37" y2="381.14"/>
<line class="cls-2" x1="1572.93" y1="381.67" x2="1572.93" y2="383.65"/>
<line class="cls-2" x1="1579.37" y1="381.67" x2="1572.93" y2="381.67"/>
<line class="cls-2" x1="1584.84" y1="381.67" x2="1581.31" y2="381.67"/>
<line class="cls-2" x1="1584.84" y1="383.65" x2="1572.93" y2="383.65"/>
<line class="cls-2" x1="1584.84" y1="304.67" x2="1584.84" y2="306.66"/>
<line class="cls-2" x1="1581.31" y1="307.19" x2="1581.31" y2="306.66"/>
<line class="cls-2" x1="1579.37" y1="307.19" x2="1581.31" y2="307.19"/>
<line class="cls-2" x1="1579.37" y1="306.66" x2="1579.37" y2="307.19"/>
<line class="cls-2" x1="1572.93" y1="306.66" x2="1572.93" y2="304.67"/>
<line class="cls-2" x1="1579.37" y1="306.66" x2="1572.93" y2="306.66"/>
<line class="cls-2" x1="1584.84" y1="306.66" x2="1581.31" y2="306.66"/>
<line class="cls-2" x1="1584.84" y1="304.67" x2="1572.93" y2="304.67"/>
<line class="cls-3" x1="1572.93" y1="381.67" x2="1584.84" y2="381.67"/>
<line class="cls-3" x1="1584.84" y1="381.67" x2="1584.84" y2="306.66"/>
<line class="cls-3" x1="1584.84" y1="306.66" x2="1572.93" y2="306.66"/>
<line class="cls-3" x1="1572.93" y1="306.66" x2="1572.93" y2="381.67"/>
<line class="cls-3" x1="1572.93" y1="306.66" x2="1572.93" y2="381.67"/>
<line class="cls-3" x1="1584.84" y1="306.66" x2="1572.93" y2="306.66"/>
<line class="cls-3" x1="1584.84" y1="381.67" x2="1584.84" y2="306.66"/>
<line class="cls-3" x1="1572.93" y1="381.67" x2="1584.84" y2="381.67"/>
<line class="cls-3" x1="1572.93" y1="381.67" x2="1572.93" y2="383.65"/>
<line class="cls-3" x1="1584.84" y1="383.65" x2="1572.93" y2="383.65"/>
<line class="cls-3" x1="1584.84" y1="383.65" x2="1584.84" y2="381.67"/>
<line class="cls-3" x1="1572.93" y1="306.66" x2="1572.93" y2="304.67"/>
<line class="cls-3" x1="1584.84" y1="304.67" x2="1584.84" y2="306.66"/>
<line class="cls-3" x1="1572.93" y1="304.67" x2="1584.84" y2="304.67"/>
<line class="cls-2" x1="1572.93" y1="383.65" x2="1584.84" y2="383.65"/>
<line class="cls-2" x1="1572.93" y1="381.67" x2="1572.93" y2="383.65"/>
<line class="cls-2" x1="1584.84" y1="381.67" x2="1572.93" y2="381.67"/>
<line class="cls-2" x1="1584.84" y1="383.65" x2="1584.84" y2="381.67"/>
<line class="cls-2" x1="1584.84" y1="306.66" x2="1584.84" y2="304.67"/>
<line class="cls-2" x1="1572.93" y1="306.66" x2="1584.84" y2="306.66"/>
<line class="cls-2" x1="1572.93" y1="304.67" x2="1572.93" y2="306.66"/>
<line class="cls-2" x1="1584.84" y1="304.67" x2="1572.93" y2="304.67"/>
<polyline class="cls-3" points="904.46 503.03 905.18 510.35 907.31 517.39 910.78 523.87 915.44 529.55 921.13 534.22 927.61 537.68 934.65 539.82 941.96 540.54"/>
<line class="cls-3" x1="941.96" y1="503.03" x2="941.96" y2="540.54"/>
<line class="cls-3" x1="874.27" y1="539.82" x2="866.95" y2="540.54"/>
<line class="cls-3" x1="876.38" y1="539.18" x2="874.27" y2="539.82"/>
<line class="cls-3" x1="893.47" y1="529.55" x2="888.36" y2="533.75"/>
<line class="cls-3" x1="897.67" y1="524.44" x2="893.47" y2="529.55"/>
<line class="cls-3" x1="903.74" y1="510.35" x2="903.1" y2="512.46"/>
<line class="cls-3" x1="904.46" y1="503.03" x2="903.74" y2="510.35"/>
<line class="cls-3" x1="866.95" y1="503.03" x2="866.95" y2="540.54"/>
<line class="cls-2" x1="864.97" y1="503.03" x2="866.95" y2="503.03"/>
<line class="cls-2" x1="867.48" y1="499.5" x2="866.95" y2="499.5"/>
<line class="cls-2" x1="867.48" y1="497.56" x2="867.48" y2="499.5"/>
<line class="cls-2" x1="866.95" y1="497.56" x2="867.48" y2="497.56"/>
<line class="cls-2" x1="866.95" y1="494.21" x2="864.97" y2="494.21"/>
<line class="cls-2" x1="866.95" y1="497.56" x2="866.95" y2="494.21"/>
<line class="cls-2" x1="866.95" y1="503.03" x2="866.95" y2="499.5"/>
<line class="cls-2" x1="864.97" y1="503.03" x2="864.97" y2="494.21"/>
<line class="cls-2" x1="943.95" y1="503.03" x2="941.96" y2="503.03"/>
<line class="cls-2" x1="941.43" y1="499.5" x2="941.96" y2="499.5"/>
<line class="cls-2" x1="941.43" y1="497.56" x2="941.43" y2="499.5"/>
<line class="cls-2" x1="941.96" y1="497.56" x2="941.43" y2="497.56"/>
<line class="cls-2" x1="941.96" y1="494.21" x2="943.95" y2="494.21"/>
<line class="cls-2" x1="941.96" y1="497.56" x2="941.96" y2="494.21"/>
<line class="cls-2" x1="941.96" y1="503.03" x2="941.96" y2="499.5"/>
<line class="cls-2" x1="943.95" y1="503.03" x2="943.95" y2="494.21"/>
<line class="cls-3" x1="866.95" y1="494.21" x2="866.95" y2="503.03"/>
<line class="cls-3" x1="866.95" y1="503.03" x2="941.96" y2="503.03"/>
<line class="cls-3" x1="941.96" y1="503.03" x2="941.96" y2="494.21"/>
<line class="cls-3" x1="941.96" y1="494.21" x2="866.95" y2="494.21"/>
<line class="cls-3" x1="941.96" y1="494.21" x2="866.95" y2="494.21"/>
<line class="cls-3" x1="941.96" y1="503.03" x2="941.96" y2="494.21"/>
<line class="cls-3" x1="866.95" y1="503.03" x2="941.96" y2="503.03"/>
<line class="cls-3" x1="866.95" y1="494.21" x2="866.95" y2="503.03"/>
<line class="cls-3" x1="866.95" y1="494.21" x2="864.97" y2="494.21"/>
<line class="cls-3" x1="864.97" y1="503.03" x2="864.97" y2="494.21"/>
<line class="cls-3" x1="864.97" y1="503.03" x2="866.95" y2="503.03"/>
<line class="cls-3" x1="941.96" y1="494.21" x2="943.95" y2="494.21"/>
<line class="cls-3" x1="943.95" y1="503.03" x2="941.96" y2="503.03"/>
<line class="cls-3" x1="943.95" y1="494.21" x2="943.95" y2="503.03"/>
<line class="cls-2" x1="941.96" y1="503.03" x2="943.95" y2="503.03"/>
<line class="cls-2" x1="941.96" y1="494.21" x2="941.96" y2="503.03"/>
<line class="cls-2" x1="943.95" y1="494.21" x2="941.96" y2="494.21"/>
<line class="cls-2" x1="943.95" y1="503.03" x2="943.95" y2="494.21"/>
<line class="cls-2" x1="864.97" y1="494.21" x2="864.97" y2="503.03"/>
<line class="cls-2" x1="866.95" y1="494.21" x2="864.97" y2="494.21"/>
<line class="cls-2" x1="866.95" y1="503.03" x2="866.95" y2="494.21"/>
<line class="cls-2" x1="864.97" y1="503.03" x2="866.95" y2="503.03"/>
<line class="cls-4" x1="1551.92" y1="207.64" x2="1551.92" y2="207.38"/>
<line class="cls-4" x1="1548.39" y1="207.64" x2="1551.92" y2="207.64"/>
<line class="cls-4" x1="1548.39" y1="199.66" x2="1548.39" y2="207.64"/>
<line class="cls-4" x1="1548.66" y1="199.66" x2="1548.39" y2="199.66"/>
<line class="cls-4" x1="1548.66" y1="207.38" x2="1548.66" y2="199.66"/>
<line class="cls-4" x1="1551.92" y1="207.38" x2="1548.66" y2="207.38"/>
<line class="cls-4" x1="1504.54" y1="207.38" x2="1501.27" y2="207.38"/>
<line class="cls-4" x1="1504.54" y1="199.66" x2="1504.54" y2="207.38"/>
<line class="cls-4" x1="1504.8" y1="199.66" x2="1504.54" y2="199.66"/>
<line class="cls-4" x1="1504.8" y1="207.64" x2="1504.8" y2="199.66"/>
<line class="cls-4" x1="1501.27" y1="207.64" x2="1504.8" y2="207.64"/>
<line class="cls-4" x1="1501.27" y1="207.38" x2="1501.27" y2="207.64"/>
<line class="cls-3" x1="1553.07" y1="104.57" x2="1500.12" y2="104.57"/>
<line class="cls-3" x1="1504.54" y1="198.33" x2="1548.66" y2="198.33"/>
<line class="cls-3" x1="1500.12" y1="104.57" x2="1500.12" y2="197.23"/>
<line class="cls-3" x1="1504.58" y1="112.37" x2="1500.12" y2="104.57"/>
<line class="cls-3" x1="1509.02" y1="120.14" x2="1507.86" y2="118.11"/>
<line class="cls-3" x1="1516.68" y1="133.55" x2="1512.3" y2="125.89"/>
<line class="cls-3" x1="1521.12" y1="141.32" x2="1519.97" y2="139.3"/>
<line class="cls-3" x1="1528.79" y1="154.73" x2="1524.41" y2="147.07"/>
<line class="cls-3" x1="1533.23" y1="162.51" x2="1532.07" y2="160.48"/>
<line class="cls-3" x1="1540.89" y1="175.91" x2="1536.51" y2="168.25"/>
<line class="cls-3" x1="1545.33" y1="183.69" x2="1544.17" y2="181.66"/>
<line class="cls-3" x1="1553.07" y1="197.23" x2="1548.62" y2="189.43"/>
<line class="cls-3" x1="1504.58" y1="189.43" x2="1500.12" y2="197.23"/>
<line class="cls-3" x1="1509.02" y1="181.66" x2="1507.86" y2="183.69"/>
<line class="cls-3" x1="1516.68" y1="168.25" x2="1512.3" y2="175.91"/>
<line class="cls-3" x1="1521.12" y1="160.48" x2="1519.97" y2="162.51"/>
<line class="cls-3" x1="1528.79" y1="147.07" x2="1524.41" y2="154.73"/>
<line class="cls-3" x1="1533.23" y1="139.3" x2="1532.07" y2="141.32"/>
<line class="cls-3" x1="1540.89" y1="125.89" x2="1536.51" y2="133.55"/>
<line class="cls-3" x1="1545.33" y1="118.11" x2="1544.17" y2="120.14"/>
<line class="cls-3" x1="1553.07" y1="104.57" x2="1548.62" y2="112.37"/>
<line class="cls-3" x1="1554.17" y1="103.47" x2="1499.02" y2="103.47"/>
<line class="cls-3" x1="1554.17" y1="198.33" x2="1554.17" y2="103.47"/>
<line class="cls-3" x1="1499.02" y1="103.47" x2="1499.02" y2="198.33"/>
<line class="cls-3" x1="1568.51" y1="198.55" x2="1568.51" y2="88.25"/>
<line class="cls-3" x1="1568.51" y1="88.25" x2="1484.68" y2="88.25"/>
<line class="cls-3" x1="1484.68" y1="88.25" x2="1484.68" y2="198.55"/>
<line class="cls-3" x1="1504.54" y1="199.66" x2="1526.55" y2="199.66"/>
<line class="cls-3" x1="1526.64" y1="198.33" x2="1526.64" y2="199.66"/>
<line class="cls-3" x1="1548.66" y1="198.33" x2="1526.64" y2="198.33"/>
<line class="cls-3" x1="1526.64" y1="199.66" x2="1548.66" y2="199.66"/>
<line class="cls-3" x1="1526.55" y1="198.33" x2="1504.54" y2="198.33"/>
<line class="cls-3" x1="1548.66" y1="198.33" x2="1548.66" y2="199.66"/>
<line class="cls-3" x1="1504.54" y1="198.33" x2="1504.54" y2="199.66"/>
<line class="cls-3" x1="1526.55" y1="198.33" x2="1526.55" y2="199.66"/>
<line class="cls-3" x1="1548.66" y1="197.23" x2="1553.07" y2="197.23"/>
<line class="cls-3" x1="1504.54" y1="197.23" x2="1500.12" y2="197.23"/>
<line class="cls-3" x1="1553.07" y1="197.23" x2="1553.07" y2="104.57"/>
<line class="cls-3" x1="1548.66" y1="198.33" x2="1554.17" y2="198.33"/>
<line class="cls-3" x1="1504.54" y1="198.33" x2="1499.02" y2="198.33"/>
<line class="cls-3" x1="1548.66" y1="198.33" x2="1548.66" y2="197.23"/>
<line class="cls-3" x1="1504.54" y1="198.33" x2="1504.54" y2="197.23"/>
<line class="cls-3" x1="1557.48" y1="207.6" x2="1557.48" y2="207.38"/>
<line class="cls-3" x1="1553.07" y1="207.38" x2="1553.07" y2="207.6"/>
<line class="cls-3" x1="1553.07" y1="207.38" x2="1557.48" y2="207.38"/>
<line class="cls-3" x1="1557.48" y1="207.6" x2="1553.07" y2="207.6"/>
<line class="cls-3" x1="1555.28" y1="207.6" x2="1555.28" y2="207.69"/>
<line class="cls-3" x1="1556.03" y1="207.6" x2="1556.03" y2="207.69"/>
<line class="cls-3" x1="1554.53" y1="207.69" x2="1554.53" y2="207.6"/>
<line class="cls-3" x1="1555.28" y1="207.6" x2="1556.03" y2="207.6"/>
<line class="cls-3" x1="1554.53" y1="207.6" x2="1555.28" y2="207.6"/>
<line class="cls-3" x1="1556.03" y1="207.69" x2="1554.53" y2="207.69"/>
<line class="cls-3" x1="1555.28" y1="207.69" x2="1554.53" y2="207.69"/>
<line class="cls-3" x1="1556.03" y1="207.69" x2="1555.28" y2="207.69"/>
<line class="cls-4" x1="1693.63" y1="1191.36" x2="1689.85" y2="1189.09"/>
<line class="cls-4" x1="1660.18" y1="1247.04" x2="1693.63" y2="1191.36"/>
<line class="cls-4" x1="1686.07" y1="1186.81" x2="1652.61" y2="1242.49"/>
<line class="cls-4" x1="1689.85" y1="909.16" x2="1681.03" y2="909.16"/>
<line class="cls-4" x1="1689.85" y1="917.76" x2="1689.85" y2="909.16"/>
<line class="cls-4" x1="1681.03" y1="909.16" x2="1681.03" y2="917.76"/>
<line class="cls-4" x1="1689.85" y1="829.3" x2="1689.85" y2="820.69"/>
<line class="cls-4" x1="1681.03" y1="829.3" x2="1689.85" y2="829.3"/>
<line class="cls-4" x1="1681.03" y1="820.69" x2="1681.03" y2="829.3"/>
<line class="cls-4" x1="1478.06" y1="79.42" x2="1478.06" y2="22.06"/>
<line class="cls-4" x1="1469.24" y1="22.06" x2="1469.24" y2="79.42"/>
<polyline class="cls-3" points="1583.96 224.41 1590.85 225.02 1597.54 226.81 1603.81 229.73 1609.48 233.7 1614.38 238.6 1618.35 244.27 1621.27 250.54 1623.07 257.23 1623.67 264.12"/>
<line class="cls-3" x1="1583.96" y1="264.12" x2="1623.67" y2="264.12"/>
<line class="cls-2" x1="1583.96" y1="222.43" x2="1583.96" y2="224.41"/>
<line class="cls-2" x1="1582.19" y1="224.94" x2="1582.19" y2="224.41"/>
<line class="cls-2" x1="1580.25" y1="224.94" x2="1582.19" y2="224.94"/>
<line class="cls-2" x1="1580.25" y1="224.41" x2="1580.25" y2="224.94"/>
<line class="cls-2" x1="1575.13" y1="224.41" x2="1575.13" y2="222.43"/>
<line class="cls-2" x1="1580.25" y1="224.41" x2="1575.13" y2="224.41"/>
<line class="cls-2" x1="1583.96" y1="224.41" x2="1582.19" y2="224.41"/>
<line class="cls-2" x1="1583.96" y1="222.43" x2="1575.13" y2="222.43"/>
<line class="cls-2" x1="1583.96" y1="266.11" x2="1583.96" y2="264.12"/>
<line class="cls-2" x1="1582.19" y1="263.59" x2="1582.19" y2="264.12"/>
<line class="cls-2" x1="1580.25" y1="263.59" x2="1582.19" y2="263.59"/>
<line class="cls-2" x1="1580.25" y1="264.12" x2="1580.25" y2="263.59"/>
<line class="cls-2" x1="1575.13" y1="264.12" x2="1575.13" y2="266.11"/>
<line class="cls-2" x1="1580.25" y1="264.12" x2="1575.13" y2="264.12"/>
<line class="cls-2" x1="1583.96" y1="264.12" x2="1582.19" y2="264.12"/>
<line class="cls-2" x1="1583.96" y1="266.11" x2="1575.13" y2="266.11"/>
<line class="cls-3" x1="1575.13" y1="224.41" x2="1575.13" y2="222.43"/>
<line class="cls-3" x1="1575.13" y1="224.41" x2="1583.96" y2="224.41"/>
<line class="cls-3" x1="1583.96" y1="222.43" x2="1583.96" y2="224.41"/>
<line class="cls-3" x1="1583.96" y1="222.43" x2="1575.13" y2="222.43"/>
<line class="cls-3" x1="1575.13" y1="266.11" x2="1583.96" y2="266.11"/>
<line class="cls-3" x1="1583.96" y1="266.11" x2="1583.96" y2="264.12"/>
<line class="cls-3" x1="1583.96" y1="264.12" x2="1575.13" y2="264.12"/>
<line class="cls-3" x1="1575.13" y1="264.12" x2="1575.13" y2="266.11"/>
<line class="cls-2" x1="1583.96" y1="266.11" x2="1575.13" y2="266.11"/>
<line class="cls-2" x1="1575.13" y1="266.11" x2="1575.13" y2="264.12"/>
<line class="cls-2" x1="1575.13" y1="264.12" x2="1583.96" y2="264.12"/>
<line class="cls-2" x1="1583.96" y1="264.12" x2="1583.96" y2="266.11"/>
<line class="cls-2" x1="1583.96" y1="222.43" x2="1583.96" y2="224.41"/>
<line class="cls-2" x1="1583.96" y1="224.41" x2="1575.13" y2="224.41"/>
<line class="cls-2" x1="1575.13" y1="224.41" x2="1575.13" y2="222.43"/>
<line class="cls-2" x1="1575.13" y1="222.43" x2="1583.96" y2="222.43"/>
<line class="cls-3" x1="1586.2" y1="202.09" x2="1586.2" y2="78.54"/>
<line class="cls-3" x1="1586.2" y1="78.54" x2="1586.2" y2="66.19"/>
<line class="cls-3" x1="1586.2" y1="66.19" x2="1586.2" y2="24.3"/>
<line class="cls-3" x1="1586.2" y1="24.3" x2="1678.79" y2="24.3"/>
<line class="cls-3" x1="1678.79" y1="24.3" x2="1678.79" y2="66.18"/>
<line class="cls-3" x1="1678.79" y1="66.18" x2="1678.79" y2="189.73"/>
<line class="cls-3" x1="1678.79" y1="189.73" x2="1678.79" y2="202.08"/>
<line class="cls-3" x1="1586.2" y1="202.09" x2="1583.96" y2="202.09"/>
<line class="cls-3" x1="1583.96" y1="202.09" x2="1583.96" y2="78.54"/>
<line class="cls-3" x1="1583.96" y1="78.54" x2="1583.96" y2="66.19"/>
<line class="cls-3" x1="1583.96" y1="66.19" x2="1583.96" y2="22.06"/>
<line class="cls-3" x1="1681.03" y1="147.91" x2="1681.03" y2="189.73"/>
<line class="cls-3" x1="1681.03" y1="189.73" x2="1681.03" y2="202.08"/>
<line class="cls-3" x1="1681.03" y1="202.08" x2="1678.79" y2="202.08"/>
<line class="cls-3" x1="1628.08" y1="202.09" x2="1628.08" y2="78.54"/>
<line class="cls-3" x1="1628.08" y1="78.54" x2="1628.08" y2="66.19"/>
<line class="cls-3" x1="1628.08" y1="66.19" x2="1636.91" y2="66.19"/>
<line class="cls-3" x1="1636.91" y1="66.19" x2="1636.91" y2="189.73"/>
<line class="cls-3" x1="1636.91" y1="189.73" x2="1636.91" y2="202.09"/>
<line class="cls-3" x1="1628.08" y1="202.09" x2="1625.84" y2="202.09"/>
<line class="cls-3" x1="1625.84" y1="202.09" x2="1625.84" y2="78.54"/>
<line class="cls-3" x1="1625.84" y1="78.54" x2="1625.84" y2="63.94"/>
<line class="cls-3" x1="1625.84" y1="63.94" x2="1639.15" y2="63.94"/>
<line class="cls-3" x1="1639.15" y1="63.94" x2="1639.15" y2="189.73"/>
<line class="cls-3" x1="1639.15" y1="189.73" x2="1639.15" y2="202.09"/>
<line class="cls-3" x1="1639.15" y1="202.09" x2="1636.91" y2="202.09"/>
<line class="cls-3" x1="1586.2" y1="189.73" x2="1625.84" y2="189.73"/>
<line class="cls-3" x1="1586.2" y1="177.38" x2="1625.84" y2="177.38"/>
<line class="cls-3" x1="1586.2" y1="165.02" x2="1625.84" y2="165.02"/>
<line class="cls-3" x1="1586.2" y1="152.67" x2="1625.84" y2="152.67"/>
<line class="cls-3" x1="1586.2" y1="140.31" x2="1625.84" y2="140.31"/>
<line class="cls-3" x1="1586.2" y1="127.96" x2="1625.84" y2="127.96"/>
<line class="cls-3" x1="1586.2" y1="115.6" x2="1625.84" y2="115.6"/>
<line class="cls-3" x1="1586.2" y1="103.25" x2="1625.84" y2="103.25"/>
<line class="cls-3" x1="1586.2" y1="90.9" x2="1625.84" y2="90.89"/>
<line class="cls-3" x1="1586.2" y1="78.54" x2="1625.84" y2="78.54"/>
<line class="cls-3" x1="1678.79" y1="78.54" x2="1639.15" y2="78.54"/>
<line class="cls-3" x1="1678.79" y1="90.89" x2="1639.15" y2="90.89"/>
<line class="cls-3" x1="1678.79" y1="103.25" x2="1639.15" y2="103.25"/>
<line class="cls-3" x1="1678.79" y1="115.6" x2="1639.15" y2="115.6"/>
<line class="cls-3" x1="1678.79" y1="127.96" x2="1639.15" y2="127.96"/>
<line class="cls-3" x1="1678.79" y1="140.31" x2="1639.15" y2="140.31"/>
<line class="cls-3" x1="1678.79" y1="152.67" x2="1639.15" y2="152.67"/>
<line class="cls-3" x1="1678.79" y1="165.02" x2="1639.15" y2="165.02"/>
<line class="cls-3" x1="1678.79" y1="177.38" x2="1639.15" y2="177.38"/>
<line class="cls-3" x1="1678.79" y1="189.73" x2="1639.15" y2="189.73"/>
<line class="cls-3" x1="1583.96" y1="202.09" x2="1628.08" y2="202.09"/>
<line class="cls-3" x1="1586.2" y1="189.73" x2="1625.84" y2="189.73"/>
<line class="cls-3" x1="1586.2" y1="177.38" x2="1625.84" y2="177.38"/>
<line class="cls-3" x1="1586.2" y1="165.02" x2="1625.84" y2="165.02"/>
<line class="cls-3" x1="1586.2" y1="152.67" x2="1625.84" y2="152.67"/>
<line class="cls-3" x1="1586.2" y1="140.31" x2="1625.84" y2="140.31"/>
<line class="cls-3" x1="1586.2" y1="127.96" x2="1625.84" y2="127.96"/>
<line class="cls-3" x1="1586.2" y1="115.6" x2="1625.84" y2="115.6"/>
<line class="cls-3" x1="1586.2" y1="103.25" x2="1625.84" y2="103.25"/>
<line class="cls-3" x1="1586.2" y1="90.9" x2="1625.84" y2="90.89"/>
<line class="cls-3" x1="1586.2" y1="78.54" x2="1625.84" y2="78.54"/>
<line class="cls-3" x1="1678.79" y1="66.18" x2="1639.15" y2="66.19"/>
<line class="cls-3" x1="1678.79" y1="78.54" x2="1639.15" y2="78.54"/>
<line class="cls-3" x1="1678.79" y1="90.89" x2="1639.15" y2="90.89"/>
<line class="cls-3" x1="1678.79" y1="103.25" x2="1639.15" y2="103.25"/>
<line class="cls-3" x1="1678.79" y1="115.6" x2="1639.15" y2="115.6"/>
<line class="cls-3" x1="1678.79" y1="127.96" x2="1639.15" y2="127.96"/>
<line class="cls-3" x1="1678.79" y1="140.31" x2="1639.15" y2="140.31"/>
<line class="cls-3" x1="1678.79" y1="152.67" x2="1639.15" y2="152.67"/>
<line class="cls-3" x1="1678.79" y1="165.02" x2="1639.15" y2="165.02"/>
<line class="cls-3" x1="1678.79" y1="177.38" x2="1639.15" y2="177.38"/>
<line class="cls-3" x1="1678.79" y1="189.73" x2="1639.15" y2="189.73"/>
<line class="cls-3" x1="1583.96" y1="202.09" x2="1583.96" y2="189.73"/>
<line class="cls-3" x1="1583.96" y1="189.73" x2="1583.96" y2="177.38"/>
<line class="cls-3" x1="1583.96" y1="177.38" x2="1583.96" y2="165.02"/>
<line class="cls-3" x1="1583.96" y1="165.02" x2="1583.96" y2="152.67"/>
<line class="cls-3" x1="1583.96" y1="152.67" x2="1583.96" y2="140.31"/>
<line class="cls-3" x1="1583.96" y1="140.31" x2="1583.96" y2="127.96"/>
<line class="cls-3" x1="1583.96" y1="127.96" x2="1583.96" y2="115.6"/>
<line class="cls-3" x1="1583.96" y1="115.6" x2="1583.96" y2="103.25"/>
<line class="cls-3" x1="1583.96" y1="103.25" x2="1583.96" y2="90.9"/>
<line class="cls-3" x1="1583.96" y1="79.42" x2="1583.96" y2="78.54"/>
<line class="cls-3" x1="1583.96" y1="90.9" x2="1583.96" y2="88.25"/>
<line class="cls-3" x1="1583.96" y1="78.54" x2="1583.96" y2="66.19"/>
<line class="cls-3" x1="1628.08" y1="202.09" x2="1628.08" y2="189.73"/>
<line class="cls-3" x1="1628.08" y1="189.73" x2="1628.08" y2="177.38"/>
<line class="cls-3" x1="1628.08" y1="177.38" x2="1628.08" y2="165.02"/>
<line class="cls-3" x1="1628.08" y1="165.02" x2="1628.08" y2="152.67"/>
<line class="cls-3" x1="1628.08" y1="152.67" x2="1628.08" y2="140.31"/>
<line class="cls-3" x1="1628.08" y1="140.31" x2="1628.08" y2="127.96"/>
<line class="cls-3" x1="1628.08" y1="127.96" x2="1628.08" y2="115.6"/>
<line class="cls-3" x1="1628.08" y1="115.6" x2="1628.08" y2="103.25"/>
<line class="cls-3" x1="1628.08" y1="103.25" x2="1628.08" y2="90.89"/>
<line class="cls-3" x1="1628.08" y1="90.89" x2="1628.08" y2="78.54"/>
<line class="cls-3" x1="1628.08" y1="78.54" x2="1628.08" y2="66.19"/>
<line class="cls-3" x1="1636.91" y1="66.19" x2="1636.91" y2="78.54"/>
<line class="cls-3" x1="1636.91" y1="78.54" x2="1636.91" y2="90.89"/>
<line class="cls-3" x1="1636.91" y1="90.89" x2="1636.91" y2="103.25"/>
<line class="cls-3" x1="1636.91" y1="103.25" x2="1636.91" y2="115.6"/>
<line class="cls-3" x1="1636.91" y1="115.6" x2="1636.91" y2="127.96"/>
<line class="cls-3" x1="1636.91" y1="127.96" x2="1636.91" y2="140.31"/>
<line class="cls-3" x1="1636.91" y1="140.31" x2="1636.91" y2="152.67"/>
<line class="cls-3" x1="1636.91" y1="152.67" x2="1636.91" y2="165.02"/>
<line class="cls-3" x1="1636.91" y1="165.02" x2="1636.91" y2="177.38"/>
<line class="cls-3" x1="1636.91" y1="177.38" x2="1636.91" y2="189.73"/>
<line class="cls-3" x1="1636.91" y1="189.73" x2="1636.91" y2="202.09"/>
<line class="cls-3" x1="1583.96" y1="202.09" x2="1628.08" y2="202.09"/>
<line class="cls-3" x1="1586.2" y1="66.19" x2="1625.84" y2="66.19"/>
<line class="cls-3" x1="1678.79" y1="66.18" x2="1639.15" y2="66.19"/>
<line class="cls-3" x1="1681.03" y1="202.08" x2="1636.91" y2="202.09"/>
<line class="cls-4" x1="1689.85" y1="269.15" x2="1689.85" y2="22.06"/>
<line class="cls-4" x1="1681.03" y1="202.08" x2="1681.03" y2="269.15"/>
<line class="cls-4" x1="1681.03" y1="22.06" x2="1681.03" y2="147.94"/>
<line class="cls-4" x1="1689.85" y1="13.24" x2="1583.96" y2="13.24"/>
<line class="cls-4" x1="1689.85" y1="22.06" x2="1689.85" y2="13.24"/>
<line class="cls-4" x1="1583.96" y1="22.06" x2="1681.03" y2="22.06"/>
<line class="cls-4" x1="1575.13" y1="221.99" x2="1583.96" y2="221.99"/>
<line class="cls-4" x1="1575.13" y1="13.24" x2="1575.13" y2="221.99"/>
<line class="cls-4" x1="1583.96" y1="13.24" x2="1575.13" y2="13.24"/>
<line class="cls-4" x1="1583.96" y1="221.99" x2="1583.96" y2="22.06"/>
<line class="cls-4" x1="1575.13" y1="266.55" x2="1575.13" y2="269.15"/>
<line class="cls-4" x1="1583.96" y1="266.55" x2="1575.13" y2="266.55"/>
<line class="cls-4" x1="1583.96" y1="269.15" x2="1583.96" y2="266.55"/>
<line class="cls-4" x1="1689.85" y1="277.98" x2="1689.85" y2="269.15"/>
<line class="cls-4" x1="1583.96" y1="277.98" x2="1689.85" y2="277.98"/>
<line class="cls-4" x1="1575.13" y1="269.15" x2="1575.13" y2="277.98"/>
<line class="cls-4" x1="1681.03" y1="269.15" x2="1583.96" y2="269.15"/>
<line class="cls-4" x1="1495.71" y1="582.46" x2="780.95" y2="582.45"/>
<line class="cls-4" x1="1416.29" y1="591.28" x2="1495.71" y2="591.28"/>
<line class="cls-4" x1="780.95" y1="591.28" x2="1407.46" y2="591.28"/>
<line class="cls-4" x1="772.12" y1="591.28" x2="772.12" y2="627.36"/>
<line class="cls-4" x1="780.95" y1="582.45" x2="772.12" y2="582.45"/>
<line class="cls-4" x1="780.95" y1="632.66" x2="780.95" y2="591.28"/>
<line class="cls-4" x1="772.12" y1="637.66" x2="1495.71" y2="1072.43"/>
<line class="cls-4" x1="772.12" y1="627.36" x2="772.12" y2="637.66"/>
<line class="cls-4" x1="1407.46" y1="1009.11" x2="780.95" y2="632.66"/>
<line class="cls-4" x1="1495.71" y1="1062.14" x2="1416.29" y2="1014.41"/>
<line class="cls-4" x1="1639.5" y1="692.74" x2="1639.5" y2="591.28"/>
<line class="cls-4" x1="1632.88" y1="591.28" x2="1632.88" y2="692.74"/>
<line class="cls-4" x1="1681.03" y1="591.28" x2="1681.03" y2="692.74"/>
<line class="cls-4" x1="1689.85" y1="692.74" x2="1689.85" y2="591.28"/>
<line class="cls-4" x1="1416.29" y1="1014.41" x2="1416.29" y2="591.28"/>
<line class="cls-4" x1="1407.46" y1="591.28" x2="1407.46" y2="1009.11"/>
<line class="cls-4" x1="1495.71" y1="591.28" x2="1495.71" y2="692.74"/>
<line class="cls-4" x1="1504.53" y1="692.74" x2="1504.53" y2="591.28"/>
<line class="cls-4" x1="1575.13" y1="582.45" x2="1495.71" y2="582.45"/>
<line class="cls-4" x1="1689.85" y1="582.46" x2="1583.96" y2="582.45"/>
<line class="cls-4" x1="1689.85" y1="591.28" x2="1689.85" y2="582.46"/>
<line class="cls-4" x1="1639.5" y1="591.28" x2="1681.03" y2="591.28"/>
<line class="cls-4" x1="1504.53" y1="591.28" x2="1632.88" y2="591.28"/>
<line class="cls-3" x1="1588.56" y1="1117.93" x2="1615.64" y2="1072.86"/>
<line class="cls-3" x1="1577.97" y1="1111.56" x2="1605.05" y2="1066.5"/>
<line class="cls-3" x1="1567.38" y1="1105.2" x2="1594.46" y2="1060.14"/>
<line class="cls-3" x1="1556.79" y1="1098.84" x2="1583.87" y2="1053.77"/>
<line class="cls-3" x1="1546.2" y1="1092.47" x2="1573.28" y2="1047.41"/>
<line class="cls-3" x1="1535.61" y1="1086.11" x2="1562.69" y2="1041.05"/>
<line class="cls-3" x1="1557.48" y1="927.69" x2="1557.48" y2="980.63"/>
<line class="cls-3" x1="1569.84" y1="927.69" x2="1569.84" y2="980.63"/>
<line class="cls-3" x1="1582.19" y1="927.69" x2="1582.19" y2="980.63"/>
<line class="cls-3" x1="1594.55" y1="927.69" x2="1594.55" y2="980.63"/>
<line class="cls-3" x1="1606.9" y1="927.69" x2="1606.9" y2="980.63"/>
<line class="cls-3" x1="1619.25" y1="927.69" x2="1619.25" y2="980.63"/>
<line class="cls-3" x1="1681.03" y1="1006.21" x2="1628.08" y2="1006.21"/>
<line class="cls-3" x1="1681.03" y1="1018.57" x2="1628.08" y2="1018.57"/>
<line class="cls-3" x1="1681.03" y1="1030.92" x2="1628.08" y2="1030.92"/>
<line class="cls-3" x1="1681.03" y1="1043.27" x2="1628.08" y2="1043.27"/>
<line class="cls-3" x1="1681.03" y1="1055.63" x2="1628.08" y2="1055.63"/>
<line class="cls-3" x1="1681.03" y1="1067.98" x2="1628.08" y2="1067.98"/>
<line class="cls-3" x1="1599.15" y1="1124.29" x2="1626.23" y2="1079.23"/>
<line class="cls-3" x1="1588.56" y1="1117.93" x2="1615.64" y2="1072.86"/>
<line class="cls-3" x1="1577.97" y1="1111.56" x2="1605.05" y2="1066.5"/>
<line class="cls-3" x1="1567.38" y1="1105.2" x2="1594.46" y2="1060.14"/>
<line class="cls-3" x1="1556.79" y1="1098.84" x2="1583.87" y2="1053.77"/>
<line class="cls-3" x1="1546.2" y1="1092.47" x2="1573.28" y2="1047.41"/>
<line class="cls-3" x1="1535.61" y1="1086.11" x2="1562.69" y2="1041.05"/>
<line class="cls-3" x1="1545.13" y1="927.69" x2="1545.13" y2="980.63"/>
<line class="cls-3" x1="1557.48" y1="927.69" x2="1557.48" y2="980.63"/>
<line class="cls-3" x1="1569.84" y1="927.69" x2="1569.84" y2="980.63"/>
<line class="cls-3" x1="1582.19" y1="927.69" x2="1582.19" y2="980.63"/>
<line class="cls-3" x1="1594.55" y1="927.69" x2="1594.55" y2="980.63"/>
<line class="cls-3" x1="1606.9" y1="927.69" x2="1606.9" y2="980.63"/>
<line class="cls-3" x1="1619.25" y1="927.69" x2="1619.25" y2="980.63"/>
<line class="cls-3" x1="1681.03" y1="993.86" x2="1628.08" y2="993.86"/>
<line class="cls-3" x1="1681.03" y1="1006.21" x2="1628.08" y2="1006.21"/>
<line class="cls-3" x1="1681.03" y1="1018.57" x2="1628.08" y2="1018.57"/>
<line class="cls-3" x1="1681.03" y1="1030.92" x2="1628.08" y2="1030.92"/>
<line class="cls-3" x1="1681.03" y1="1043.27" x2="1628.08" y2="1043.27"/>
<line class="cls-3" x1="1681.03" y1="1055.63" x2="1628.08" y2="1055.63"/>
<line class="cls-3" x1="1681.03" y1="1067.98" x2="1628.08" y2="1067.98"/>
<line class="cls-3" x1="1626.23" y1="1079.23" x2="1615.64" y2="1072.86"/>
<line class="cls-3" x1="1615.64" y1="1072.86" x2="1605.05" y2="1066.5"/>
<line class="cls-3" x1="1605.05" y1="1066.5" x2="1594.46" y2="1060.14"/>
<line class="cls-3" x1="1594.46" y1="1060.14" x2="1583.87" y2="1053.77"/>
<line class="cls-3" x1="1583.87" y1="1053.77" x2="1573.28" y2="1047.41"/>
<line class="cls-3" x1="1573.28" y1="1047.41" x2="1562.69" y2="1041.05"/>
<line class="cls-3" x1="1562.69" y1="1041.05" x2="1552.1" y2="1034.68"/>
<line class="cls-3" x1="1545.13" y1="927.69" x2="1557.48" y2="927.69"/>
<line class="cls-3" x1="1557.48" y1="927.69" x2="1569.84" y2="927.69"/>
<line class="cls-3" x1="1569.84" y1="927.69" x2="1582.19" y2="927.69"/>
<line class="cls-3" x1="1582.19" y1="927.69" x2="1594.55" y2="927.69"/>
<line class="cls-3" x1="1594.55" y1="927.69" x2="1606.9" y2="927.69"/>
<line class="cls-3" x1="1606.9" y1="927.69" x2="1619.25" y2="927.69"/>
<line class="cls-3" x1="1619.25" y1="927.69" x2="1631.61" y2="927.69"/>
<line class="cls-3" x1="1545.13" y1="980.63" x2="1557.48" y2="980.63"/>
<line class="cls-3" x1="1557.48" y1="980.63" x2="1569.84" y2="980.63"/>
<line class="cls-3" x1="1569.84" y1="980.63" x2="1582.19" y2="980.63"/>
<line class="cls-3" x1="1582.19" y1="980.63" x2="1594.55" y2="980.63"/>
<line class="cls-3" x1="1594.55" y1="980.63" x2="1606.9" y2="980.63"/>
<line class="cls-3" x1="1606.9" y1="980.63" x2="1619.25" y2="980.63"/>
<line class="cls-3" x1="1619.25" y1="980.63" x2="1631.61" y2="980.63"/>
<line class="cls-3" x1="1681.03" y1="993.86" x2="1681.03" y2="1006.21"/>
<line class="cls-3" x1="1681.03" y1="1006.21" x2="1681.03" y2="1018.57"/>
<line class="cls-3" x1="1681.03" y1="1018.57" x2="1681.03" y2="1030.92"/>
<line class="cls-3" x1="1681.03" y1="1030.92" x2="1681.03" y2="1043.27"/>
<line class="cls-3" x1="1681.03" y1="1043.27" x2="1681.03" y2="1055.63"/>
<line class="cls-3" x1="1681.03" y1="1055.63" x2="1681.03" y2="1067.98"/>
<line class="cls-3" x1="1681.03" y1="1067.98" x2="1681.03" y2="1080.34"/>
<line class="cls-3" x1="1628.08" y1="993.86" x2="1628.08" y2="1006.21"/>
<line class="cls-3" x1="1628.08" y1="1006.21" x2="1628.08" y2="1018.57"/>
<line class="cls-3" x1="1628.08" y1="1018.57" x2="1628.08" y2="1030.92"/>
<line class="cls-3" x1="1628.08" y1="1030.92" x2="1628.08" y2="1043.27"/>
<line class="cls-3" x1="1628.08" y1="1043.27" x2="1628.08" y2="1055.63"/>
<line class="cls-3" x1="1628.08" y1="1055.63" x2="1628.08" y2="1067.98"/>
<line class="cls-3" x1="1628.08" y1="1067.98" x2="1628.08" y2="1080.34"/>
<line class="cls-3" x1="1599.15" y1="1124.29" x2="1626.23" y2="1079.23"/>
<line class="cls-3" x1="1525.02" y1="1079.75" x2="1552.1" y2="1034.68"/>
<line class="cls-3" x1="1545.13" y1="927.69" x2="1545.13" y2="980.63"/>
<line class="cls-3" x1="1631.61" y1="927.69" x2="1631.61" y2="980.63"/>
<line class="cls-3" x1="1681.03" y1="993.86" x2="1628.08" y2="993.86"/>
<line class="cls-3" x1="1681.03" y1="1080.34" x2="1628.08" y2="1080.34"/>
<line class="cls-3" x1="1545.13" y1="927.69" x2="1504.54" y2="927.69"/>
<line class="cls-3" x1="1552.1" y1="1034.68" x2="1545.13" y2="1030.5"/>
<line class="cls-3" x1="1545.13" y1="1030.5" x2="1545.13" y2="980.63"/>
<line class="cls-3" x1="1628.08" y1="1080.34" x2="1626.23" y2="1079.23"/>
<line class="cls-3" x1="1626.23" y1="1079.23" x2="1599.15" y2="1124.29"/>
<line class="cls-3" x1="1681.03" y1="1173.49" x2="1681.03" y2="1080.34"/>
<line class="cls-3" x1="1681.03" y1="1080.34" x2="1628.08" y2="1080.34"/>
<line class="cls-4" x1="1469.24" y1="88.25" x2="1469.24" y2="198.55"/>
<line class="cls-4" x1="1478.06" y1="198.55" x2="1478.06" y2="88.25"/>
<line class="cls-4" x1="1575.13" y1="88.25" x2="1575.13" y2="198.55"/>
<line class="cls-4" x1="1583.96" y1="198.55" x2="1583.96" y2="88.25"/>
<line class="cls-4" x1="1504.54" y1="207.38" x2="1504.54" y2="198.55"/>
<line class="cls-4" x1="1495.71" y1="207.38" x2="1504.54" y2="207.38"/>
<line class="cls-4" x1="1469.24" y1="207.38" x2="1486.89" y2="207.38"/>
<line class="cls-4" x1="1504.54" y1="198.55" x2="1478.06" y2="198.55"/>
<line class="cls-4" x1="1583.96" y1="207.38" x2="1583.96" y2="198.55"/>
<line class="cls-4" x1="1548.66" y1="207.38" x2="1583.96" y2="207.38"/>
<line class="cls-4" x1="1548.66" y1="198.55" x2="1548.66" y2="207.38"/>
<line class="cls-4" x1="1575.13" y1="198.55" x2="1548.66" y2="198.55"/>
<line class="cls-4" x1="1469.24" y1="79.42" x2="1469.24" y2="88.25"/>
<line class="cls-4" x1="1583.96" y1="79.42" x2="1478.06" y2="79.42"/>
<line class="cls-4" x1="1583.96" y1="88.25" x2="1583.96" y2="79.42"/>
<line class="cls-4" x1="1478.06" y1="88.25" x2="1575.13" y2="88.25"/>
<line class="cls-4" x1="1689.85" y1="1189.09" x2="1689.85" y2="1178.79"/>
<line class="cls-4" x1="1504.54" y1="1077.73" x2="1686.07" y2="1186.81"/>
<line class="cls-4" x1="1681.03" y1="1173.49" x2="1504.54" y2="1067.44"/>
<line class="cls-4" x1="1689.85" y1="1178.79" x2="1689.85" y2="926.59"/>
<line class="cls-4" x1="1681.03" y1="926.59" x2="1681.03" y2="1173.49"/>
<line class="cls-4" x1="1681.03" y1="917.76" x2="1504.54" y2="917.76"/>
<line class="cls-4" x1="1689.85" y1="926.59" x2="1689.85" y2="917.76"/>
<line class="cls-4" x1="1504.54" y1="926.59" x2="1681.03" y2="926.59"/>
<line class="cls-4" x1="1495.71" y1="1072.43" x2="1504.54" y2="1077.73"/>
<line class="cls-4" x1="1495.71" y1="917.76" x2="1495.71" y2="1062.14"/>
<line class="cls-4" x1="1504.54" y1="917.76" x2="1495.71" y2="917.76"/>
<line class="cls-4" x1="1504.54" y1="1067.44" x2="1504.54" y2="926.59"/>
<line class="cls-4" x1="754.44" y1="22.06" x2="754.44"/>
<line class="cls-4" x1="388.22" y1="22.06" x2="754.44" y2="22.06"/>
<line class="cls-4" x1="754.44" x2="388.22"/>
<line class="cls-4" x1="1495.71" y1="503.03" x2="1495.71" y2="207.38"/>
<line class="cls-4" x1="1486.89" y1="503.03" x2="1495.71" y2="503.03"/>
<line class="cls-4" x1="1486.89" y1="207.38" x2="1486.89" y2="494.21"/>
<line class="cls-4" x1="1652.61" y1="1242.49" x2="696.61" y2="668.07"/>
<line class="cls-4" x1="1655.63" y1="1254.6" x2="1660.18" y2="1247.04"/>
<line class="cls-4" x1="696.61" y1="678.37" x2="1655.63" y2="1254.6"/>
<line class="cls-4" x1="1575.14" y1="304.23" x2="1583.96" y2="304.23"/>
<line class="cls-4" x1="1575.14" y1="277.98" x2="1575.14" y2="304.23"/>
<line class="cls-4" x1="1583.96" y1="304.23" x2="1583.96" y2="277.98"/>
<line class="cls-4" x1="1575.13" y1="384.09" x2="1575.13" y2="582.45"/>
<line class="cls-4" x1="1583.96" y1="384.09" x2="1575.13" y2="384.09"/>
<line class="cls-4" x1="1583.96" y1="582.45" x2="1583.96" y2="384.09"/>
<polyline class="cls-3" points="734.58 503.03 735.31 510.35 737.44 517.39 740.91 523.87 745.57 529.55 751.25 534.22 757.74 537.68 764.77 539.82 772.09 540.54"/>
<line class="cls-3" x1="772.09" y1="503.03" x2="772.09" y2="540.54"/>
<line class="cls-3" x1="704.4" y1="539.82" x2="697.08" y2="540.54"/>
<line class="cls-3" x1="706.5" y1="539.18" x2="704.4" y2="539.82"/>
<line class="cls-3" x1="723.6" y1="529.55" x2="718.48" y2="533.75"/>
<line class="cls-3" x1="727.8" y1="524.44" x2="723.6" y2="529.55"/>
<line class="cls-3" x1="733.86" y1="510.35" x2="733.23" y2="512.46"/>
<line class="cls-3" x1="734.58" y1="503.03" x2="733.86" y2="510.35"/>
<line class="cls-3" x1="697.08" y1="503.03" x2="697.08" y2="540.54"/>
<line class="cls-2" x1="695.09" y1="503.03" x2="697.08" y2="503.03"/>
<line class="cls-2" x1="697.61" y1="499.5" x2="697.08" y2="499.5"/>
<line class="cls-2" x1="697.61" y1="497.56" x2="697.61" y2="499.5"/>
<line class="cls-2" x1="697.08" y1="497.56" x2="697.61" y2="497.56"/>
<line class="cls-2" x1="697.08" y1="494.21" x2="695.09" y2="494.21"/>
<line class="cls-2" x1="697.08" y1="497.56" x2="697.08" y2="494.21"/>
<line class="cls-2" x1="697.08" y1="503.03" x2="697.08" y2="499.5"/>
<line class="cls-2" x1="695.09" y1="503.03" x2="695.09" y2="494.21"/>
<line class="cls-2" x1="774.07" y1="503.03" x2="772.09" y2="503.03"/>
<line class="cls-2" x1="771.56" y1="499.5" x2="772.09" y2="499.5"/>
<line class="cls-2" x1="771.56" y1="497.56" x2="771.56" y2="499.5"/>
<line class="cls-2" x1="772.09" y1="497.56" x2="771.56" y2="497.56"/>
<line class="cls-2" x1="772.09" y1="494.21" x2="774.07" y2="494.21"/>
<line class="cls-2" x1="772.09" y1="497.56" x2="772.09" y2="494.21"/>
<line class="cls-2" x1="772.09" y1="503.03" x2="772.09" y2="499.5"/>
<line class="cls-2" x1="774.07" y1="503.03" x2="774.07" y2="494.21"/>
<line class="cls-3" x1="697.08" y1="494.21" x2="697.08" y2="503.03"/>
<line class="cls-3" x1="697.08" y1="503.03" x2="772.09" y2="503.03"/>
<line class="cls-3" x1="772.09" y1="503.03" x2="772.09" y2="494.21"/>
<line class="cls-3" x1="772.09" y1="494.21" x2="697.08" y2="494.21"/>
<line class="cls-3" x1="772.09" y1="494.21" x2="697.08" y2="494.21"/>
<line class="cls-3" x1="772.09" y1="503.03" x2="772.09" y2="494.21"/>
<line class="cls-3" x1="697.08" y1="503.03" x2="772.09" y2="503.03"/>
<line class="cls-3" x1="697.08" y1="494.21" x2="697.08" y2="503.03"/>
<line class="cls-3" x1="697.08" y1="494.21" x2="695.09" y2="494.21"/>
<line class="cls-3" x1="695.09" y1="503.03" x2="695.09" y2="494.21"/>
<line class="cls-3" x1="695.09" y1="503.03" x2="697.08" y2="503.03"/>
<line class="cls-3" x1="772.09" y1="494.21" x2="774.07" y2="494.21"/>
<line class="cls-3" x1="774.07" y1="503.03" x2="772.09" y2="503.03"/>
<line class="cls-3" x1="774.07" y1="494.21" x2="774.07" y2="503.03"/>
<line class="cls-2" x1="772.09" y1="503.03" x2="774.07" y2="503.03"/>
<line class="cls-2" x1="772.09" y1="494.21" x2="772.09" y2="503.03"/>
<line class="cls-2" x1="774.07" y1="494.21" x2="772.09" y2="494.21"/>
<line class="cls-2" x1="774.07" y1="503.03" x2="774.07" y2="494.21"/>
<line class="cls-2" x1="695.09" y1="494.21" x2="695.09" y2="503.03"/>
<line class="cls-2" x1="697.08" y1="494.21" x2="695.09" y2="494.21"/>
<line class="cls-2" x1="697.08" y1="503.03" x2="697.08" y2="494.21"/>
<line class="cls-2" x1="695.09" y1="503.03" x2="697.08" y2="503.03"/>
<line class="cls-4" x1="687.79" y1="673.06" x2="696.61" y2="678.37"/>
<line class="cls-4" x1="687.79" y1="591.28" x2="687.79" y2="673.06"/>
<line class="cls-4" x1="696.61" y1="668.07" x2="696.61" y2="591.28"/>
<polyline class="cls-3" points="366.16 542.52 358.84 541.8 351.8 539.67 345.32 536.2 339.64 531.54 334.97 525.85 331.51 519.37 329.37 512.33 328.65 505.02"/>
<line class="cls-3" x1="366.16" y1="505.02" x2="328.65" y2="505.02"/>
<line class="cls-3" x1="329.37" y1="572.71" x2="328.65" y2="580.03"/>
<line class="cls-3" x1="330.01" y1="570.6" x2="329.37" y2="572.71"/>
<line class="cls-3" x1="339.64" y1="553.51" x2="335.44" y2="558.62"/>
<line class="cls-3" x1="344.75" y1="549.31" x2="339.64" y2="553.51"/>
<line class="cls-3" x1="358.84" y1="543.24" x2="356.73" y2="543.88"/>
<line class="cls-3" x1="366.16" y1="542.52" x2="358.84" y2="543.24"/>
<line class="cls-3" x1="366.16" y1="580.03" x2="328.65" y2="580.03"/>
<line class="cls-2" x1="366.16" y1="582.01" x2="366.16" y2="580.03"/>
<line class="cls-2" x1="369.69" y1="579.5" x2="369.69" y2="580.03"/>
<line class="cls-2" x1="371.63" y1="579.5" x2="369.69" y2="579.5"/>
<line class="cls-2" x1="371.63" y1="580.03" x2="371.63" y2="579.5"/>
<line class="cls-2" x1="388.22" y1="580.03" x2="388.22" y2="582.01"/>
<line class="cls-2" x1="371.63" y1="580.03" x2="388.22" y2="580.03"/>
<line class="cls-2" x1="366.16" y1="580.03" x2="369.69" y2="580.03"/>
<line class="cls-2" x1="366.16" y1="582.01" x2="388.22" y2="582.01"/>
<line class="cls-2" x1="366.16" y1="503.03" x2="366.16" y2="505.02"/>
<line class="cls-2" x1="369.69" y1="505.55" x2="369.69" y2="505.02"/>
<line class="cls-2" x1="371.63" y1="505.55" x2="369.69" y2="505.55"/>
<line class="cls-2" x1="371.63" y1="505.02" x2="371.63" y2="505.55"/>
<line class="cls-2" x1="388.22" y1="505.02" x2="388.22" y2="503.03"/>
<line class="cls-2" x1="371.63" y1="505.02" x2="388.22" y2="505.02"/>
<line class="cls-2" x1="366.16" y1="505.02" x2="369.69" y2="505.02"/>
<line class="cls-2" x1="366.16" y1="503.03" x2="388.22" y2="503.03"/>
<line class="cls-3" x1="388.22" y1="580.03" x2="388.22" y2="505.02"/>
<line class="cls-3" x1="388.22" y1="505.02" x2="366.16" y2="505.02"/>
<line class="cls-3" x1="366.16" y1="505.02" x2="366.16" y2="580.03"/>
<line class="cls-3" x1="366.16" y1="580.03" x2="388.22" y2="580.03"/>
<line class="cls-3" x1="366.16" y1="580.03" x2="388.22" y2="580.03"/>
<line class="cls-3" x1="366.16" y1="505.02" x2="366.16" y2="580.03"/>
<line class="cls-3" x1="388.22" y1="505.02" x2="366.16" y2="505.02"/>
<line class="cls-3" x1="388.22" y1="580.03" x2="388.22" y2="505.02"/>
<line class="cls-3" x1="366.16" y1="582.01" x2="366.16" y2="580.03"/>
<line class="cls-3" x1="366.16" y1="582.01" x2="388.22" y2="582.01"/>
<line class="cls-3" x1="388.22" y1="580.03" x2="388.22" y2="582.01"/>
<line class="cls-3" x1="366.16" y1="503.03" x2="366.16" y2="505.02"/>
<line class="cls-2" x1="366.16" y1="503.03" x2="388.22" y2="503.03"/>
<line class="cls-2" x1="388.22" y1="503.03" x2="388.22" y2="505.02"/>
<line class="cls-2" x1="388.22" y1="505.02" x2="366.16" y2="505.02"/>
<line class="cls-2" x1="366.16" y1="505.02" x2="366.16" y2="503.03"/>
<line class="cls-2" x1="366.16" y1="582.01" x2="366.16" y2="580.03"/>
<line class="cls-2" x1="366.16" y1="580.03" x2="388.22" y2="580.03"/>
<line class="cls-2" x1="388.22" y1="580.03" x2="388.22" y2="582.01"/>
<line class="cls-2" x1="388.22" y1="582.01" x2="366.16" y2="582.01"/>
<line class="cls-4" x1="696.61" y1="591.28" x2="772.12" y2="591.28"/>
<line class="cls-4" x1="388.22" y1="591.28" x2="687.79" y2="591.28"/>
<line class="cls-4" x1="772.12" y1="582.45" x2="388.22" y2="582.45"/>
<line class="cls-4" x1="1451.09" y1="22.06" x2="1451.09"/>
<line class="cls-4" x1="978.97" y1="22.06" x2="1451.09" y2="22.06"/>
<line class="cls-4" x1="978.97" x2="978.97" y2="22.06"/>
<line class="cls-4" x1="1451.09" x2="978.97"/>
<line class="cls-4" x1="694.65" y1="503.03" x2="694.65" y2="494.21"/>
<line class="cls-4" x1="420.21" y1="503.03" x2="694.65" y2="503.03"/>
<line class="cls-4" x1="388.22" y1="503.03" x2="400.35" y2="503.03"/>
<line class="cls-4" x1="388.22" y1="502.59" x2="388.22" y2="503.03"/>
<line class="cls-4" x1="400.35" y1="494.21" x2="388.22" y2="494.21"/>
<line class="cls-4" x1="694.65" y1="494.21" x2="420.21" y2="494.21"/>
<line class="cls-4" x1="864.53" y1="503.03" x2="864.53" y2="494.21"/>
<line class="cls-4" x1="774.52" y1="503.03" x2="864.53" y2="503.03"/>
<line class="cls-4" x1="774.52" y1="494.21" x2="774.52" y2="503.03"/>
<line class="cls-4" x1="864.53" y1="494.21" x2="774.52" y2="494.21"/>
<line class="cls-4" x1="944.39" y1="503.03" x2="1486.89" y2="503.03"/>
<line class="cls-4" x1="944.39" y1="494.21" x2="944.39" y2="503.03"/>
<line class="cls-4" x1="1486.89" y1="494.21" x2="944.39" y2="494.21"/>
<polyline class="cls-3" points="366.16 388.28 358.84 389.01 351.8 391.14 345.32 394.61 339.64 399.27 334.97 404.95 331.51 411.44 329.37 418.47 328.65 425.79"/>
<line class="cls-3" x1="366.16" y1="425.79" x2="328.65" y2="425.79"/>
<line class="cls-3" x1="329.37" y1="358.1" x2="328.65" y2="350.78"/>
<line class="cls-3" x1="330.01" y1="360.2" x2="329.37" y2="358.1"/>
<line class="cls-3" x1="339.64" y1="377.3" x2="335.44" y2="372.18"/>
<line class="cls-3" x1="344.75" y1="381.5" x2="339.64" y2="377.3"/>
<line class="cls-3" x1="358.84" y1="387.56" x2="356.73" y2="386.93"/>
<line class="cls-3" x1="366.16" y1="388.28" x2="358.84" y2="387.56"/>
<line class="cls-3" x1="366.16" y1="350.78" x2="328.65" y2="350.78"/>
<line class="cls-2" x1="366.16" y1="348.79" x2="366.16" y2="350.78"/>
<line class="cls-2" x1="369.69" y1="351.31" x2="369.69" y2="350.78"/>
<line class="cls-2" x1="371.63" y1="351.31" x2="369.69" y2="351.31"/>
<line class="cls-2" x1="371.63" y1="350.78" x2="371.63" y2="351.31"/>
<line class="cls-2" x1="388.22" y1="350.78" x2="388.22" y2="348.79"/>
<line class="cls-2" x1="371.63" y1="350.78" x2="388.22" y2="350.78"/>
<line class="cls-2" x1="366.16" y1="350.78" x2="369.69" y2="350.78"/>
<line class="cls-2" x1="366.16" y1="348.79" x2="388.22" y2="348.79"/>
<line class="cls-2" x1="366.16" y1="427.78" x2="366.16" y2="425.79"/>
<line class="cls-2" x1="369.69" y1="425.26" x2="369.69" y2="425.79"/>
<line class="cls-2" x1="371.63" y1="425.26" x2="369.69" y2="425.26"/>
<line class="cls-2" x1="371.63" y1="425.79" x2="371.63" y2="425.26"/>
<line class="cls-2" x1="388.22" y1="425.79" x2="388.22" y2="427.78"/>
<line class="cls-2" x1="371.63" y1="425.79" x2="388.22" y2="425.79"/>
<line class="cls-2" x1="366.16" y1="425.79" x2="369.69" y2="425.79"/>
<line class="cls-2" x1="366.16" y1="427.78" x2="388.22" y2="427.78"/>
<line class="cls-3" x1="388.22" y1="350.78" x2="366.16" y2="350.78"/>
<line class="cls-3" x1="366.16" y1="350.78" x2="366.16" y2="425.79"/>
<line class="cls-3" x1="366.16" y1="425.79" x2="388.22" y2="425.79"/>
<line class="cls-3" x1="388.22" y1="425.79" x2="388.22" y2="350.78"/>
<line class="cls-3" x1="388.22" y1="425.79" x2="388.22" y2="350.78"/>
<line class="cls-3" x1="366.16" y1="425.79" x2="388.22" y2="425.79"/>
<line class="cls-3" x1="366.16" y1="350.78" x2="366.16" y2="425.79"/>
<line class="cls-3" x1="388.22" y1="350.78" x2="366.16" y2="350.78"/>
<line class="cls-3" x1="388.22" y1="350.78" x2="388.22" y2="348.79"/>
<line class="cls-3" x1="366.16" y1="348.79" x2="388.22" y2="348.79"/>
<line class="cls-3" x1="366.16" y1="348.79" x2="366.16" y2="350.78"/>
<line class="cls-3" x1="388.22" y1="425.79" x2="388.22" y2="427.78"/>
<line class="cls-3" x1="366.16" y1="427.78" x2="366.16" y2="425.79"/>
<line class="cls-3" x1="388.22" y1="427.78" x2="366.16" y2="427.78"/>
<line class="cls-2" x1="366.16" y1="425.79" x2="366.16" y2="427.78"/>
<line class="cls-2" x1="388.22" y1="425.79" x2="366.16" y2="425.79"/>
<line class="cls-2" x1="388.22" y1="427.78" x2="388.22" y2="425.79"/>
<line class="cls-2" x1="366.16" y1="427.78" x2="388.22" y2="427.78"/>
<line class="cls-2" x1="388.22" y1="348.79" x2="366.16" y2="348.79"/>
<line class="cls-2" x1="388.22" y1="350.78" x2="388.22" y2="348.79"/>
<line class="cls-2" x1="366.16" y1="350.78" x2="388.22" y2="350.78"/>
<line class="cls-2" x1="366.16" y1="348.79" x2="366.16" y2="350.78"/>
<line class="cls-4" x1="1571.78" y1="820.96" x2="1571.78" y2="820.69"/>
<line class="cls-4" x1="1568.25" y1="820.96" x2="1571.78" y2="820.96"/>
<line class="cls-4" x1="1568.25" y1="812.97" x2="1568.25" y2="820.96"/>
<line class="cls-4" x1="1568.51" y1="812.97" x2="1568.25" y2="812.97"/>
<line class="cls-4" x1="1568.51" y1="820.69" x2="1568.51" y2="812.97"/>
<line class="cls-4" x1="1571.78" y1="820.69" x2="1568.51" y2="820.69"/>
<line class="cls-4" x1="1524.39" y1="820.69" x2="1521.13" y2="820.69"/>
<line class="cls-4" x1="1524.39" y1="812.97" x2="1524.39" y2="820.69"/>
<line class="cls-4" x1="1524.66" y1="812.97" x2="1524.39" y2="812.97"/>
<line class="cls-4" x1="1524.66" y1="820.96" x2="1524.66" y2="812.97"/>
<line class="cls-4" x1="1521.13" y1="820.96" x2="1524.66" y2="820.96"/>
<line class="cls-4" x1="1521.13" y1="820.69" x2="1521.13" y2="820.96"/>
<line class="cls-3" x1="1572.93" y1="717.89" x2="1519.98" y2="717.89"/>
<line class="cls-3" x1="1524.39" y1="811.65" x2="1568.51" y2="811.65"/>
<line class="cls-3" x1="1519.98" y1="717.89" x2="1519.98" y2="810.54"/>
<line class="cls-3" x1="1524.43" y1="725.68" x2="1519.98" y2="717.89"/>
<line class="cls-3" x1="1528.88" y1="733.46" x2="1527.72" y2="731.43"/>
<line class="cls-3" x1="1536.54" y1="746.86" x2="1532.16" y2="739.2"/>
<line class="cls-3" x1="1540.98" y1="754.64" x2="1539.82" y2="752.61"/>
<line class="cls-3" x1="1548.64" y1="768.05" x2="1544.26" y2="760.38"/>
<line class="cls-3" x1="1553.08" y1="775.82" x2="1551.93" y2="773.79"/>
<line class="cls-3" x1="1560.75" y1="789.23" x2="1556.37" y2="781.57"/>
<line class="cls-3" x1="1565.19" y1="797" x2="1564.03" y2="794.97"/>
<line class="cls-3" x1="1572.93" y1="810.54" x2="1568.47" y2="802.75"/>
<line class="cls-3" x1="1524.43" y1="802.75" x2="1519.98" y2="810.54"/>
<line class="cls-3" x1="1528.88" y1="794.97" x2="1527.72" y2="797"/>
<line class="cls-3" x1="1536.54" y1="781.57" x2="1532.16" y2="789.23"/>
<line class="cls-3" x1="1540.98" y1="773.79" x2="1539.82" y2="775.82"/>
<line class="cls-3" x1="1548.64" y1="760.38" x2="1544.26" y2="768.05"/>
<line class="cls-3" x1="1553.08" y1="752.61" x2="1551.93" y2="754.64"/>
<line class="cls-3" x1="1560.75" y1="739.2" x2="1556.37" y2="746.86"/>
<line class="cls-3" x1="1565.19" y1="731.43" x2="1564.03" y2="733.46"/>
<line class="cls-3" x1="1572.93" y1="717.89" x2="1568.47" y2="725.68"/>
<line class="cls-3" x1="1574.03" y1="716.78" x2="1518.88" y2="716.78"/>
<line class="cls-3" x1="1574.03" y1="811.65" x2="1574.03" y2="716.78"/>
<line class="cls-3" x1="1518.88" y1="716.78" x2="1518.88" y2="811.65"/>
<line class="cls-3" x1="1588.37" y1="811.87" x2="1588.37" y2="701.56"/>
<line class="cls-3" x1="1579.65" y1="701.56" x2="1504.54" y2="701.56"/>
<line class="cls-3" x1="1504.54" y1="701.56" x2="1504.54" y2="811.87"/>
<line class="cls-3" x1="1524.39" y1="812.97" x2="1546.41" y2="812.97"/>
<line class="cls-3" x1="1546.5" y1="811.65" x2="1546.5" y2="812.97"/>
<line class="cls-3" x1="1568.51" y1="811.65" x2="1546.5" y2="811.65"/>
<line class="cls-3" x1="1546.5" y1="812.97" x2="1568.51" y2="812.97"/>
<line class="cls-3" x1="1546.41" y1="811.65" x2="1524.39" y2="811.65"/>
<line class="cls-3" x1="1568.51" y1="811.65" x2="1568.51" y2="812.97"/>
<line class="cls-3" x1="1524.39" y1="811.65" x2="1524.39" y2="812.97"/>
<line class="cls-3" x1="1546.41" y1="811.65" x2="1546.41" y2="812.97"/>
<line class="cls-3" x1="1568.51" y1="810.54" x2="1572.93" y2="810.54"/>
<line class="cls-3" x1="1524.39" y1="810.54" x2="1519.98" y2="810.54"/>
<line class="cls-3" x1="1572.93" y1="810.54" x2="1572.93" y2="717.89"/>
<line class="cls-3" x1="1568.51" y1="811.65" x2="1574.03" y2="811.65"/>
<line class="cls-3" x1="1524.39" y1="811.65" x2="1518.88" y2="811.65"/>
<line class="cls-3" x1="1568.51" y1="811.65" x2="1568.51" y2="810.54"/>
<line class="cls-3" x1="1524.39" y1="811.65" x2="1524.39" y2="810.54"/>
<line class="cls-3" x1="1577.34" y1="820.91" x2="1577.34" y2="820.69"/>
<line class="cls-3" x1="1572.93" y1="820.69" x2="1572.93" y2="820.91"/>
<line class="cls-3" x1="1572.93" y1="820.69" x2="1577.34" y2="820.69"/>
<line class="cls-3" x1="1577.34" y1="820.91" x2="1572.93" y2="820.91"/>
<line class="cls-3" x1="1575.13" y1="820.91" x2="1575.13" y2="821"/>
<line class="cls-3" x1="1575.88" y1="820.91" x2="1575.88" y2="821"/>
<line class="cls-3" x1="1574.38" y1="821" x2="1574.38" y2="820.91"/>
<line class="cls-3" x1="1575.13" y1="820.91" x2="1575.88" y2="820.91"/>
<line class="cls-3" x1="1574.38" y1="820.91" x2="1575.13" y2="820.91"/>
<line class="cls-3" x1="1575.88" y1="821" x2="1574.38" y2="821"/>
<line class="cls-3" x1="1575.13" y1="821" x2="1574.38" y2="821"/>
<line class="cls-3" x1="1575.88" y1="821" x2="1575.13" y2="821"/>
<line class="cls-4" x1="1664.44" y1="820.96" x2="1664.44" y2="820.69"/>
<line class="cls-4" x1="1660.91" y1="820.96" x2="1664.44" y2="820.96"/>
<line class="cls-4" x1="1660.91" y1="812.97" x2="1660.91" y2="820.96"/>
<line class="cls-4" x1="1661.17" y1="812.97" x2="1660.91" y2="812.97"/>
<line class="cls-4" x1="1661.17" y1="820.69" x2="1661.17" y2="812.97"/>
<line class="cls-4" x1="1664.44" y1="820.69" x2="1661.17" y2="820.69"/>
<line class="cls-4" x1="1617.05" y1="820.69" x2="1613.78" y2="820.69"/>
<line class="cls-4" x1="1617.05" y1="812.97" x2="1617.05" y2="820.69"/>
<line class="cls-4" x1="1617.31" y1="812.97" x2="1617.05" y2="812.97"/>
<line class="cls-4" x1="1617.31" y1="820.96" x2="1617.31" y2="812.97"/>
<line class="cls-4" x1="1613.78" y1="820.96" x2="1617.31" y2="820.96"/>
<line class="cls-4" x1="1613.78" y1="820.69" x2="1613.78" y2="820.96"/>
<line class="cls-3" x1="1665.59" y1="717.89" x2="1612.64" y2="717.89"/>
<line class="cls-3" x1="1617.05" y1="811.65" x2="1661.17" y2="811.65"/>
<line class="cls-3" x1="1612.64" y1="717.89" x2="1612.64" y2="810.54"/>
<line class="cls-3" x1="1617.09" y1="725.68" x2="1612.64" y2="717.89"/>
<line class="cls-3" x1="1621.53" y1="733.46" x2="1620.38" y2="731.43"/>
<line class="cls-3" x1="1629.2" y1="746.86" x2="1624.82" y2="739.2"/>
<line class="cls-3" x1="1633.64" y1="754.64" x2="1632.48" y2="752.61"/>
<line class="cls-3" x1="1641.3" y1="768.05" x2="1636.92" y2="760.38"/>
<line class="cls-3" x1="1645.74" y1="775.82" x2="1644.58" y2="773.79"/>
<line class="cls-3" x1="1653.4" y1="789.23" x2="1649.03" y2="781.57"/>
<line class="cls-3" x1="1657.85" y1="797" x2="1656.69" y2="794.97"/>
<line class="cls-3" x1="1665.59" y1="810.54" x2="1661.13" y2="802.75"/>
<line class="cls-3" x1="1617.09" y1="802.75" x2="1612.64" y2="810.54"/>
<line class="cls-3" x1="1621.53" y1="794.97" x2="1620.38" y2="797"/>
<line class="cls-3" x1="1629.2" y1="781.57" x2="1624.82" y2="789.23"/>
<line class="cls-3" x1="1633.64" y1="773.79" x2="1632.48" y2="775.82"/>
<line class="cls-3" x1="1641.3" y1="760.38" x2="1636.92" y2="768.05"/>
<line class="cls-3" x1="1645.74" y1="752.61" x2="1644.58" y2="754.64"/>
<line class="cls-3" x1="1653.4" y1="739.2" x2="1649.03" y2="746.86"/>
<line class="cls-3" x1="1657.85" y1="731.43" x2="1656.69" y2="733.46"/>
<line class="cls-3" x1="1665.59" y1="717.89" x2="1661.13" y2="725.68"/>
<line class="cls-3" x1="1666.69" y1="716.78" x2="1611.53" y2="716.78"/>
<line class="cls-3" x1="1666.69" y1="811.65" x2="1666.69" y2="716.78"/>
<line class="cls-3" x1="1611.53" y1="716.78" x2="1611.53" y2="811.65"/>
<line class="cls-3" x1="1681.03" y1="811.87" x2="1681.03" y2="701.56"/>
<line class="cls-3" x1="1597.19" y1="701.56" x2="1597.19" y2="811.87"/>
<line class="cls-3" x1="1617.05" y1="812.97" x2="1639.07" y2="812.97"/>
<line class="cls-3" x1="1639.16" y1="811.65" x2="1639.16" y2="812.97"/>
<line class="cls-3" x1="1661.17" y1="811.65" x2="1639.16" y2="811.65"/>
<line class="cls-3" x1="1639.16" y1="812.97" x2="1661.17" y2="812.97"/>
<line class="cls-3" x1="1639.07" y1="811.65" x2="1617.05" y2="811.65"/>
<line class="cls-3" x1="1661.17" y1="811.65" x2="1661.17" y2="812.97"/>
<line class="cls-3" x1="1617.05" y1="811.65" x2="1617.05" y2="812.97"/>
<line class="cls-3" x1="1639.07" y1="811.65" x2="1639.07" y2="812.97"/>
<line class="cls-3" x1="1661.17" y1="810.54" x2="1665.59" y2="810.54"/>
<line class="cls-3" x1="1617.05" y1="810.54" x2="1612.64" y2="810.54"/>
<line class="cls-3" x1="1665.59" y1="810.54" x2="1665.59" y2="717.89"/>
<line class="cls-3" x1="1661.17" y1="811.65" x2="1666.69" y2="811.65"/>
<line class="cls-3" x1="1617.05" y1="811.65" x2="1611.53" y2="811.65"/>
<line class="cls-3" x1="1661.17" y1="811.65" x2="1661.17" y2="810.54"/>
<line class="cls-3" x1="1617.05" y1="811.65" x2="1617.05" y2="810.54"/>
<line class="cls-3" x1="1670" y1="820.91" x2="1670" y2="820.69"/>
<line class="cls-3" x1="1665.59" y1="820.69" x2="1665.59" y2="820.91"/>
<line class="cls-3" x1="1665.59" y1="820.69" x2="1670" y2="820.69"/>
<line class="cls-3" x1="1670" y1="820.91" x2="1665.59" y2="820.91"/>
<line class="cls-3" x1="1667.79" y1="820.91" x2="1667.79" y2="821"/>
<line class="cls-3" x1="1668.54" y1="820.91" x2="1668.54" y2="821"/>
<line class="cls-3" x1="1667.04" y1="821" x2="1667.04" y2="820.91"/>
<line class="cls-3" x1="1667.79" y1="820.91" x2="1668.54" y2="820.91"/>
<line class="cls-3" x1="1667.04" y1="820.91" x2="1667.79" y2="820.91"/>
<line class="cls-3" x1="1668.54" y1="821" x2="1667.04" y2="821"/>
<line class="cls-3" x1="1667.79" y1="821" x2="1667.04" y2="821"/>
<line class="cls-3" x1="1668.54" y1="821" x2="1667.79" y2="821"/>
<line class="cls-4" x1="1478.06" y1="22.06" x2="2034.01" y2="22.06"/>
<line class="cls-4" x1="1230.97" y1="22.06" x2="1469.24" y2="22.06"/>
<line class="cls-4" x1="1230.97" x2="1230.97" y2="22.06"/>
<line class="cls-4" x1="2034.01" x2="1230.97"/>
<line class="cls-4" x1="420.21" y1="262.53" x2="400.35" y2="262.53"/>
<line class="cls-4" x1="420.21" y1="275.77" x2="420.21" y2="262.53"/>
<line class="cls-4" x1="400.35" y1="275.77" x2="420.21" y2="275.77"/>
<line class="cls-4" x1="400.35" y1="262.53" x2="400.35" y2="275.77"/>
<line class="cls-4" x1="1393.07" y1="1374.95" x2="1382.84" y2="1391.97"/>
<line class="cls-4" x1="1404.41" y1="1381.76" x2="1393.07" y2="1374.95"/>
<line class="cls-4" x1="1394.19" y1="1398.78" x2="1404.41" y2="1381.76"/>
<line class="cls-4" x1="1382.84" y1="1391.97" x2="1394.19" y2="1398.78"/>
<line class="cls-4" x1="415.66" y1="785.36" x2="398.38" y2="795.14"/>
<line class="cls-4" x1="422.18" y1="796.88" x2="415.66" y2="785.36"/>
<line class="cls-4" x1="404.9" y1="806.66" x2="422.18" y2="796.88"/>
<line class="cls-4" x1="398.38" y1="795.14" x2="404.9" y2="806.66"/>
<line class="cls-4" x1="420.21" y1="491.97" x2="400.35" y2="491.97"/>
<line class="cls-4" x1="420.21" y1="505.21" x2="420.21" y2="491.97"/>
<line class="cls-4" x1="400.35" y1="505.21" x2="420.21" y2="505.21"/>
<line class="cls-4" x1="400.35" y1="491.97" x2="400.35" y2="505.21"/>
<line class="cls-4" x1="2021.88" y1="1180.3" x2="2002.03" y2="1180.3"/>
<line class="cls-4" x1="2021.88" y1="1193.53" x2="2021.88" y2="1180.3"/>
<line class="cls-4" x1="2002.03" y1="1193.53" x2="2021.88" y2="1193.53"/>
<line class="cls-4" x1="2002.03" y1="1180.3" x2="2002.03" y2="1193.53"/>
<line class="cls-4" x1="2021.88" y1="491.97" x2="2002.03" y2="491.97"/>
<line class="cls-4" x1="2021.88" y1="505.21" x2="2021.88" y2="491.97"/>
<line class="cls-4" x1="2002.03" y1="505.21" x2="2021.88" y2="505.21"/>
<line class="cls-4" x1="2002.03" y1="491.97" x2="2002.03" y2="505.21"/>
<line class="cls-4" x1="606.39" y1="902.26" x2="596.16" y2="919.28"/>
<line class="cls-4" x1="617.73" y1="909.08" x2="606.39" y2="902.26"/>
<line class="cls-4" x1="607.51" y1="926.1" x2="617.73" y2="909.08"/>
<line class="cls-4" x1="596.16" y1="919.28" x2="607.51" y2="926.1"/>
<line class="cls-4" x1="803.06" y1="1020.43" x2="792.83" y2="1037.45"/>
<line class="cls-4" x1="814.4" y1="1027.25" x2="803.06" y2="1020.43"/>
<line class="cls-4" x1="804.18" y1="1044.27" x2="814.4" y2="1027.25"/>
<line class="cls-4" x1="792.83" y1="1037.45" x2="804.18" y2="1044.27"/>
<line class="cls-4" x1="999.73" y1="1138.61" x2="989.5" y2="1155.62"/>
<line class="cls-4" x1="1011.07" y1="1145.42" x2="999.73" y2="1138.61"/>
<line class="cls-4" x1="1000.85" y1="1162.44" x2="1011.07" y2="1145.42"/>
<line class="cls-4" x1="989.5" y1="1155.62" x2="1000.85" y2="1162.44"/>
<line class="cls-4" x1="1196.4" y1="1256.78" x2="1186.17" y2="1273.8"/>
<line class="cls-4" x1="1207.74" y1="1263.59" x2="1196.4" y2="1256.78"/>
<line class="cls-4" x1="1197.52" y1="1280.61" x2="1207.74" y2="1263.59"/>
<line class="cls-4" x1="1186.17" y1="1273.8" x2="1197.52" y2="1280.61"/>
<line class="cls-4" x1="2021.88" y1="1409.74" x2="2002.03" y2="1409.74"/>
<line class="cls-4" x1="2021.88" y1="1422.98" x2="2021.88" y2="1409.74"/>
<line class="cls-4" x1="2002.03" y1="1422.98" x2="2021.88" y2="1422.98"/>
<line class="cls-4" x1="2002.03" y1="1409.74" x2="2002.03" y2="1422.98"/>
<line class="cls-4" x1="2021.88" y1="950.86" x2="2002.03" y2="950.86"/>
<line class="cls-4" x1="2021.88" y1="964.09" x2="2021.88" y2="950.86"/>
<line class="cls-4" x1="2002.03" y1="964.09" x2="2021.88" y2="964.09"/>
<line class="cls-4" x1="2002.03" y1="950.86" x2="2002.03" y2="964.09"/>
<line class="cls-4" x1="2021.88" y1="721.42" x2="2002.03" y2="721.42"/>
<line class="cls-4" x1="2021.88" y1="734.65" x2="2021.88" y2="721.42"/>
<line class="cls-4" x1="2002.03" y1="734.65" x2="2021.88" y2="734.65"/>
<line class="cls-4" x1="2002.03" y1="721.42" x2="2002.03" y2="734.65"/>
<line class="cls-4" x1="2021.88" y1="262.53" x2="2002.03" y2="262.53"/>
<line class="cls-4" x1="2021.88" y1="275.77" x2="2021.88" y2="262.53"/>
<line class="cls-4" x1="2002.03" y1="275.77" x2="2021.88" y2="275.77"/>
<line class="cls-4" x1="2002.03" y1="262.53" x2="2002.03" y2="275.77"/>
<line class="cls-4" x1="1588.37" y1="701.56" x2="1588.37" y2="811.87"/>
<line class="cls-4" x1="1597.19" y1="811.87" x2="1597.19" y2="701.56"/>
<line class="cls-4" x1="1524.39" y1="820.69" x2="1524.39" y2="811.87"/>
<line class="cls-4" x1="1504.54" y1="820.69" x2="1524.39" y2="820.69"/>
<line class="cls-4" x1="1524.39" y1="811.87" x2="1504.54" y2="811.87"/>
<line class="cls-4" x1="1617.05" y1="820.69" x2="1617.05" y2="811.87"/>
<line class="cls-4" x1="1568.51" y1="820.69" x2="1617.05" y2="820.69"/>
<line class="cls-4" x1="1568.51" y1="811.87" x2="1568.51" y2="820.69"/>
<line class="cls-4" x1="1588.37" y1="811.87" x2="1568.51" y2="811.87"/>
<line class="cls-4" x1="1617.05" y1="811.87" x2="1597.19" y2="811.87"/>
<line class="cls-4" x1="1661.17" y1="820.69" x2="1681.03" y2="820.69"/>
<line class="cls-4" x1="1661.17" y1="811.87" x2="1661.17" y2="820.69"/>
<line class="cls-4" x1="1681.03" y1="811.87" x2="1661.17" y2="811.87"/>
<line class="cls-4" x1="1689.85" y1="820.69" x2="1689.85" y2="701.56"/>
<line class="cls-4" x1="1681.03" y1="701.56" x2="1681.03" y2="811.87"/>
<line class="cls-4" x1="1632.88" y1="692.74" x2="1504.54" y2="692.74"/>
<line class="cls-4" x1="1681.03" y1="692.74" x2="1639.5" y2="692.74"/>
<line class="cls-4" x1="1689.85" y1="701.56" x2="1689.85" y2="692.74"/>
<line class="cls-4" x1="1597.19" y1="701.56" x2="1681.03" y2="701.56"/>
<line class="cls-4" x1="1504.54" y1="701.56" x2="1588.37" y2="701.56"/>
<line class="cls-4" x1="1495.71" y1="820.69" x2="1504.54" y2="820.69"/>
<line class="cls-4" x1="1495.71" y1="692.74" x2="1495.71" y2="820.69"/>
<line class="cls-4" x1="1504.54" y1="811.87" x2="1504.54" y2="701.56"/>
<line class="cls-4" x1="2034.01" y1="1527.57" x2="1802.74" y2="1658.42"/>
<line class="cls-4" x1="1824.46" y1="1671.48" x2="2034.01" y2="1552.92"/>
<line class="cls-4" x1="1802.4" y1="1683.96" x2="1824.46" y2="1671.48"/>
<line class="cls-4" x1="388.22" y1="834.23" x2="1802.4" y2="1683.96"/>
<line class="cls-4" x1="1802.74" y1="1658.42" x2="388.22" y2="808.49"/>
<line class="cls-4" x1="2056.08" x2="2034.01"/>
<line class="cls-4" x1="2056.08" y1="1540.44" x2="2056.08"/>
<line class="cls-4" x1="2034.01" y1="1552.92" x2="2056.08" y2="1540.44"/>
<line class="cls-4" x1="2034.01" y1="22.06" x2="2034.01" y2="1527.57"/>
<line class="cls-4" x1="388.22" y1="582.45" x2="366.16" y2="582.45"/>
<line class="cls-4" x1="388.22" y1="808.49" x2="388.22" y2="591.28"/>
<line class="cls-4" x1="366.16" y1="820.98" x2="388.22" y2="834.23"/>
<line class="cls-4" x1="366.16" y1="582.45" x2="366.16" y2="820.98"/>
<line class="cls-4" x1="388.22" y1="428.22" x2="366.16" y2="428.22"/>
<line class="cls-4" x1="388.22" y1="494.21" x2="388.22" y2="428.22"/>
<line class="cls-4" x1="366.16" y1="502.59" x2="388.22" y2="502.59"/>
<line class="cls-4" x1="366.16" y1="428.22" x2="366.16" y2="502.59"/>
<line class="cls-4" x1="388.22" x2="366.16"/>
<line class="cls-4" x1="388.22" y1="198.55" x2="388.22" y2="22.06"/>
<line class="cls-4" x1="388.22" y1="348.35" x2="388.22" y2="207.38"/>
<line class="cls-4" x1="366.16" y1="348.35" x2="388.22" y2="348.35"/>
<line class="cls-4" x1="366.16" x2="366.16" y2="348.35"/>
<line class="cls-4" x1="388.22" y1="207.38" x2="1469.24" y2="207.38"/>
<line class="cls-4" x1="1469.24" y1="198.56" x2="388.22" y2="198.55"/>
<line class="cls-3" x1="1469.24" y1="198.55" x2="485.39" y2="198.55"/>
<line class="cls-3" x1="1544.35" y1="198.55" x2="1504.54" y2="198.55"/>
<line class="cls-3" x1="1469.24" y1="22.06" x2="485.39" y2="22.06"/>
<line class="cls-3" x1="1544.35" y1="22.06" x2="1478.06" y2="22.06"/>
<line class="cls-3" x1="1544.35" y1="88.25" x2="1544.35" y2="198.55"/>
<line class="cls-3" x1="1544.35" y1="22.06" x2="1544.35" y2="79.42"/>
<line class="cls-3" x1="485.39" y1="22.06" x2="485.39" y2="198.55"/>
</svg>